# Blender v3.4.0 OBJ File: ''
# www.blender.org
o Icosphere
v 0.316669 -0.633341 0.643425
v -0.634386 -0.633341 -0.334409
v 0.316669 -0.633341 -0.643425
v 0.723607 -0.447219 0.525725
v 0.850648 -0.525736 -0.000000
v 0.951058 -0.000000 0.309013
v -0.276388 -0.447220 0.850649
v 0.262869 -0.525738 0.809012
v 0.000000 -0.000000 1.000000
v -0.894426 -0.447216 -0.000000
v -0.688189 -0.525736 0.499997
v -0.951058 -0.000000 0.309013
v -0.276388 -0.447220 -0.850649
v -0.688189 -0.525736 -0.499997
v -0.587786 0.000000 -0.809017
v 0.723607 -0.447220 -0.525725
v 0.262869 -0.525738 -0.809012
v 0.587786 0.000000 -0.809017
v 0.587786 -0.000000 0.809017
v -0.587786 -0.000000 0.809017
v -0.951058 0.000000 -0.309013
v 0.000000 0.000000 -1.000000
v 0.951058 0.000000 -0.309013
v 0.276388 0.447220 0.850649
v 0.688189 0.525736 0.499997
v 0.162456 0.850654 0.499995
v -0.723607 0.447220 0.525725
v -0.262869 0.525738 0.809012
v -0.425323 0.850654 0.309011
v -0.723607 0.447219 -0.525725
v -0.850648 0.525736 0.000000
v -0.425323 0.850654 -0.309011
v 0.276388 0.447220 -0.850649
v -0.262869 0.525738 -0.809012
v 0.162456 0.850654 -0.499995
v 0.894426 0.447216 0.000000
v 0.688189 0.525736 -0.499997
v 0.525730 0.850652 0.000000
v 0.000000 1.000000 0.000000
v 0.585996 -0.633341 -0.425746
v 0.122013 -0.633341 -0.706674
v -0.223826 -0.633341 -0.688878
v -0.514079 -0.633341 -0.499996
v -0.724328 -0.633341 -0.000000
v -0.634386 -0.633341 0.334409
v -0.514079 -0.633341 0.499996
v -0.223826 -0.633341 0.688878
v 0.122013 -0.633341 0.706674
v 0.585996 -0.633341 0.425746
v 0.709790 -0.633341 0.102337
v 0.709790 -0.633341 -0.102337
v 2.424251 -0.633341 0.857261
v 2.466600 -0.633341 0.714273
v 2.492067 -0.500000 0.792647
v 1.807240 -0.633341 1.185803
v 1.956317 -0.633341 1.181893
v 1.889647 -0.500000 1.230333
v 1.304112 -0.633341 0.700512
v 1.353897 -0.633341 0.841086
v 1.287227 -0.500000 0.792647
v 1.610176 -0.633341 0.072051
v 1.491866 -0.633341 0.162840
v 1.517331 -0.500000 0.084464
v 2.302459 -0.633341 0.168929
v 2.179555 -0.633341 0.084465
v 2.261963 -0.500000 0.084464
v 2.302459 -0.633341 1.024895
v 1.610176 -0.633341 1.121773
v 1.304112 -0.633341 0.493312
v 1.889647 -0.500000 -0.036509
v 1.807240 -0.633341 0.008021
v 2.492067 -0.500000 0.401177
v 2.424251 -0.633341 0.336563
v 2.064717 -0.216721 1.135731
v 2.325561 -0.166988 0.913621
v 1.992550 0.038823 0.913619
v 1.431299 -0.216722 0.929917
v 1.723140 -0.166987 1.109357
v 1.620238 0.038822 0.792646
v 1.431299 -0.216722 0.263906
v 1.350828 -0.166988 0.596912
v 1.620238 0.038822 0.401178
v 2.064717 -0.216722 0.058093
v 1.723140 -0.166987 0.084467
v 1.992550 0.038822 0.280204
v 2.456195 -0.216724 0.596912
v 2.325561 -0.166988 0.280203
v 2.222655 0.038821 0.596912
v 1.889647 0.133421 0.596912
v 1.287227 -0.500000 0.401177
v 1.517331 -0.500000 1.109360
v 2.261963 -0.500000 1.109360
v 1.956317 -0.633341 0.011931
v 1.353897 -0.633341 0.352738
v 1.491866 -0.633341 1.030984
v 2.179555 -0.633341 1.109359
v 2.466600 -0.633341 0.479551
v 1.862725 -0.633341 -0.243774
v 0.911669 -0.633341 -1.221608
v 1.862725 -0.633341 -1.530625
v 2.269663 -0.447220 -0.361474
v 2.396703 -0.525736 -0.887199
v 2.497113 0.000000 -0.578187
v 1.269668 -0.447220 -0.036550
v 1.808924 -0.525738 -0.078188
v 1.546056 -0.000000 0.112801
v 0.651629 -0.447216 -0.887199
v 0.857866 -0.525736 -0.387202
v 0.594998 0.000000 -0.578187
v 1.269668 -0.447220 -1.737848
v 0.857866 -0.525736 -1.387196
v 0.958270 0.000000 -1.696216
v 2.269663 -0.447220 -1.412925
v 1.808924 -0.525738 -1.696211
v 2.133841 0.000000 -1.696216
v 2.133841 0.000000 -0.078182
v 0.958270 0.000000 -0.078182
v 0.594998 0.000000 -1.196212
v 1.546056 0.000000 -1.887199
v 2.497113 0.000000 -1.196212
v 1.822444 0.447220 -0.036550
v 2.234245 0.525736 -0.387202
v 1.708511 0.850654 -0.387204
v 0.822448 0.447219 -0.361474
v 1.283187 0.525738 -0.078188
v 1.120733 0.850654 -0.578188
v 0.822448 0.447219 -1.412925
v 0.695408 0.525736 -0.887199
v 1.120733 0.850654 -1.196211
v 1.822444 0.447220 -1.737848
v 1.283187 0.525738 -1.696211
v 1.708511 0.850654 -1.387194
v 2.440482 0.447216 -0.887199
v 2.234245 0.525736 -1.387196
v 2.071785 0.850652 -0.887199
v 1.546056 1.000000 -0.887199
v 2.132051 -0.633341 -1.312945
v 1.668069 -0.633341 -1.593873
v 1.322229 -0.633341 -1.576077
v 1.031976 -0.633341 -1.387196
v 0.821728 -0.633341 -0.887199
v 0.911669 -0.633341 -0.552790
v 1.031976 -0.633341 -0.387203
v 1.322229 -0.633341 -0.198321
v 1.668069 -0.633341 -0.180525
v 2.132051 -0.633341 -0.461453
v 2.255846 -0.633341 -0.784862
v 2.255846 -0.633341 -0.989536
vt 0.025097 0.159579
vt 0.223734 0.042014
vt 0.236760 0.210727
vt 0.467728 0.409881
vt 0.474232 0.494488
vt 0.395193 0.462171
vt 0.745982 0.591468
vt 0.718306 0.543532
vt 0.816004 0.543531
vt 0.745983 0.769391
vt 0.736965 0.680430
vt 0.827536 0.732720
vt 0.870485 0.320918
vt 0.879502 0.409881
vt 0.788932 0.357590
vt 0.555708 0.309910
vt 0.638572 0.344808
vt 0.547681 0.394003
vt 0.395193 0.357590
vt 0.827535 0.628139
vt 0.816004 0.817327
vt 0.800463 0.272983
vt 0.475651 0.349612
vt 0.313640 0.320919
vt 0.304623 0.409881
vt 0.237116 0.357590
vt 0.061053 0.565926
vt 0.148337 0.546778
vt 0.119948 0.626483
vt 0.000000 0.733044
vt 0.018273 0.645008
vt 0.084062 0.724713
vt 0.553294 0.485725
vt 0.619001 0.540564
vt 0.518311 0.543531
vt 0.313641 0.498842
vt 0.285964 0.546778
vt 0.237117 0.462171
vt 0.236447 0.724713
vt 0.156062 0.785422
vt 0.172980 0.701527
vt 0.206772 0.803948
vt 0.474232 0.452953
vt 0.054386 0.803948
vt 0.214126 0.626483
vt 0.285964 0.272983
vt 0.383662 0.546778
vt 0.637154 0.448149
vt 0.709893 0.491369
vt 0.716397 0.409881
vt 0.709893 0.325274
vt 0.788932 0.462171
vt 0.709893 0.494488
vt 0.906574 0.765036
vt 0.900071 0.680430
vt 0.906574 0.595823
vt 0.383661 0.272983
vt 0.707927 0.402029
vt 0.870484 0.498842
vt 0.474232 0.325274
vt 0.522026 0.272982
vt 0.633321 0.320038
vt 0.586622 0.291504
vt 0.254900 0.181224
vt 0.266134 0.208459
vt 0.662951 0.337970
vt 0.709893 0.366105
vt 0.901859 0.392563
vt 0.905788 0.337837
vt 0.246188 0.068384
vt 0.253108 0.039746
vt 0.901859 0.427198
vt 0.905788 0.481924
vt 0.714609 0.697747
vt 0.710679 0.752473
vt 0.113726 0.015431
vt 0.081708 0.028638
vt 0.088628 0.000000
vt 0.714608 0.663113
vt 0.710679 0.608386
vt 0.022431 0.125048
vt 0.014585 0.053796
vt 0.039104 0.068872
vt 0.000000 0.144149
vt 0.028282 0.231191
vt 0.050197 0.212530
vt 0.109705 0.272983
vt 0.098471 0.245747
vt 0.132136 0.253882
vt 0.201226 0.272983
vt 0.710679 0.886509
vt 0.712259 0.862722
vt 0.732306 0.870918
vt 0.227532 0.963547
vt 0.231082 0.977931
vt 0.206311 0.977324
vt 0.226522 0.847010
vt 0.224585 0.871166
vt 0.201946 0.857344
vt 0.240982 0.918221
vt 0.242327 0.894025
vt 0.265298 0.907287
vt 0.945632 0.859987
vt 0.945637 0.884183
vt 0.922981 0.871001
vt 0.710679 0.921571
vt 0.224362 0.935095
vt 0.231082 0.818748
vt 0.257993 0.960879
vt 0.237116 0.946587
vt 0.923226 0.817407
vt 0.945761 0.831620
vt 0.783963 0.960391
vt 0.789675 0.904041
vt 0.832435 0.937163
vt 0.038672 0.816077
vt 0.093960 0.803948
vt 0.075978 0.854435
vt 0.000000 0.921933
vt 0.011574 0.866169
vt 0.053247 0.916656
vt 0.875234 0.904291
vt 0.867253 0.957912
vt 0.832435 0.904442
vt 0.783963 0.847691
vt 0.801494 0.817327
vt 0.832435 0.870919
vt 0.149770 0.916656
vt 0.098853 0.955110
vt 0.109569 0.901969
vt 0.130974 0.966845
vt 0.866876 0.850728
vt 0.034449 0.966845
vt 0.135632 0.854435
vt 0.801493 0.990755
vt 0.739610 0.817327
vt 0.923214 0.937244
vt 0.923837 0.990834
vt 0.311243 0.874165
vt 0.315363 0.927757
vt 0.265298 0.841043
vt 0.315363 0.820573
vt 0.210561 0.803948
vt 0.152397 0.835654
vt 0.155202 0.889330
vt 0.200322 0.923569
vt 0.149770 0.942805
vt 0.739609 0.990755
vt 0.732305 0.937162
vt 0.945777 0.923902
vt 0.945943 0.948097
vt 0.242327 0.854305
vt 0.240982 0.830109
vt 0.223611 0.910873
vt 0.712259 0.945359
vt 0.945943 0.817327
vt 0.716639 0.830589
vt 0.716638 0.977492
vt 0.622369 0.813637
vt 0.670942 0.920210
vt 0.584595 0.999339
vt 0.291231 0.159579
vt 0.489868 0.042014
vt 0.502894 0.210727
vt 0.230612 0.409881
vt 0.237116 0.494488
vt 0.158077 0.462171
vt 0.272420 0.594714
vt 0.244743 0.546779
vt 0.342441 0.546778
vt 0.272421 0.772638
vt 0.263402 0.683676
vt 0.353973 0.735967
vt 0.928521 0.047936
vt 0.937538 0.136898
vt 0.846968 0.084608
vt 0.613744 0.036927
vt 0.696608 0.071825
vt 0.605717 0.121020
vt 0.158077 0.357590
vt 0.353973 0.631386
vt 0.342442 0.820573
vt 0.858499 0.000000
vt 0.533687 0.076629
vt 0.076524 0.320919
vt 0.067506 0.409881
vt 0.000000 0.357590
vt 0.535285 0.562679
vt 0.622569 0.543532
vt 0.594180 0.623237
vt 0.474232 0.729798
vt 0.492505 0.641762
vt 0.558294 0.721466
vt 0.611330 0.212742
vt 0.677037 0.267581
vt 0.576347 0.270549
vt 0.076525 0.498842
vt 0.048848 0.546778
vt 0.000001 0.462171
vt 0.710679 0.721466
vt 0.630294 0.782176
vt 0.647213 0.698281
vt 0.681004 0.800702
vt 0.532268 0.179970
vt 0.528618 0.800702
vt 0.688358 0.623236
vt 0.048848 0.272983
vt 0.146546 0.546778
vt 0.695189 0.175167
vt 0.767929 0.218387
vt 0.774433 0.136899
vt 0.767929 0.052291
vt 0.846968 0.189189
vt 0.767929 0.221505
vt 0.433012 0.768283
vt 0.426508 0.683677
vt 0.433012 0.599069
vt 0.146545 0.272983
vt 0.765963 0.129046
vt 0.928520 0.225859
vt 0.237116 0.325274
vt 0.580062 0.000000
vt 0.691357 0.047056
vt 0.644658 0.018522
vt 0.521034 0.181224
vt 0.532268 0.208459
vt 0.720987 0.064987
vt 0.767928 0.093122
vt 0.959895 0.119581
vt 0.963824 0.064854
vt 0.512322 0.068384
vt 0.519242 0.039746
vt 0.959895 0.154215
vt 0.963824 0.208941
vt 0.241046 0.700994
vt 0.237116 0.755719
vt 0.379860 0.015431
vt 0.347842 0.028638
vt 0.354762 0.000000
vt 0.241046 0.666359
vt 0.237116 0.611632
vt 0.288565 0.125048
vt 0.280719 0.053796
vt 0.305238 0.068871
vt 0.266134 0.144149
vt 0.294416 0.231191
vt 0.316331 0.212530
vt 0.375839 0.272983
vt 0.364605 0.245747
vt 0.398270 0.253882
vt 0.467360 0.272983
vt 0.172305 0.013929
vt 0.265719 0.123633
vt 0.190251 0.246374
vt 0.559368 1.000000
vt 0.526022 0.989165
vt 0.506003 0.973803
vt 0.482656 0.941669
vt 0.474232 0.917882
vt 0.474232 0.882819
vt 0.482656 0.859032
vt 0.506002 0.826900
vt 0.526022 0.811537
vt 0.559368 0.800702
vt 0.584594 0.801363
vt 0.643167 0.827929
vt 0.663776 0.856295
vt 0.670942 0.880491
vt 0.663776 0.944407
vt 0.643167 0.972772
vt 0.622370 0.987064
vt 0.438439 0.013929
vt 0.531853 0.123633
vt 0.456385 0.246374
vn -0.0000 -1.0000 0.0000
vn 0.9050 -0.3304 0.2680
vn 0.0247 -0.3304 0.9435
vn -0.8897 -0.3304 0.3151
vn -0.5746 -0.3304 -0.7488
vn 0.5346 -0.3304 -0.7779
vn 0.8026 -0.1256 0.5831
vn -0.3066 -0.1256 0.9435
vn -0.9921 -0.1256 -0.0000
vn -0.3066 -0.1256 -0.9435
vn 0.8026 -0.1256 -0.5831
vn 0.4089 0.6617 0.6284
vn -0.4713 0.6617 0.5831
vn -0.7002 0.6617 -0.2680
vn 0.0385 0.6617 -0.7488
vn 0.7240 0.6617 -0.1947
vn 0.2680 0.9435 -0.1947
vn 0.4911 0.7947 -0.3568
vn 0.4089 0.6617 -0.6284
vn -0.1024 0.9435 -0.3151
vn -0.1876 0.7947 -0.5773
vn -0.4713 0.6617 -0.5831
vn -0.3313 0.9435 0.0000
vn -0.6071 0.7947 0.0000
vn -0.7002 0.6617 0.2680
vn -0.1024 0.9435 0.3151
vn -0.1876 0.7947 0.5773
vn 0.0385 0.6617 0.7488
vn 0.2680 0.9435 0.1947
vn 0.4911 0.7947 0.3568
vn 0.7240 0.6617 0.1947
vn 0.8897 0.3304 -0.3151
vn 0.7947 0.1876 -0.5773
vn 0.5746 0.3304 -0.7488
vn -0.0247 0.3304 -0.9435
vn -0.3035 0.1876 -0.9342
vn -0.5346 0.3304 -0.7779
vn -0.9050 0.3304 -0.2680
vn -0.9822 0.1876 0.0000
vn -0.9050 0.3304 0.2680
vn -0.5346 0.3304 0.7779
vn -0.3035 0.1876 0.9342
vn -0.0247 0.3304 0.9435
vn 0.5746 0.3304 0.7488
vn 0.7947 0.1876 0.5773
vn 0.8897 0.3304 0.3151
vn 0.3066 0.1256 -0.9435
vn 0.3035 -0.1876 -0.9342
vn 0.0247 -0.3304 -0.9435
vn -0.8026 0.1256 -0.5831
vn -0.7947 -0.1876 -0.5773
vn -0.8897 -0.3304 -0.3151
vn -0.8026 0.1256 0.5831
vn -0.7947 -0.1876 0.5773
vn -0.5746 -0.3304 0.7488
vn 0.3066 0.1256 0.9435
vn 0.3035 -0.1876 0.9342
vn 0.5346 -0.3304 0.7779
vn 0.9921 0.1256 0.0000
vn 0.9822 -0.1876 0.0000
vn 0.9050 -0.3304 -0.2680
vn 0.4713 -0.6617 -0.5831
vn 0.1876 -0.7947 -0.5773
vn -0.0385 -0.6617 -0.7488
vn -0.4089 -0.6617 -0.6284
vn -0.4911 -0.7947 -0.3568
vn -0.7240 -0.6617 -0.1947
vn -0.7240 -0.6617 0.1947
vn -0.4911 -0.7947 0.3568
vn -0.4089 -0.6617 0.6284
vn -0.0385 -0.6617 0.7488
vn 0.1876 -0.7947 0.5773
vn 0.4713 -0.6617 0.5831
vn 0.6071 -0.7947 0.0000
vn 0.7002 -0.6617 -0.2680
vn 0.7002 -0.6617 0.2680
s 1
f 1/1/1 2/2/1 3/3/1
f 4/4/2 5/5/2 6/6/2
f 7/7/3 8/8/3 9/9/3
f 10/10/4 11/11/4 12/12/4
f 13/13/5 14/14/5 15/15/5
f 16/16/6 17/17/6 18/18/6
f 4/4/7 6/6/7 19/19/7
f 7/7/8 9/9/8 20/20/8
f 10/10/9 12/12/9 21/21/9
f 13/13/10 15/15/10 22/22/10
f 16/16/11 18/18/11 23/23/11
f 24/24/12 25/25/12 26/26/12
f 27/27/13 28/28/13 29/29/13
f 30/30/14 31/31/14 32/32/14
f 33/33/15 34/34/15 35/35/15
f 36/36/16 37/37/16 38/38/16
f 38/39/17 35/40/17 39/41/17
f 38/39/18 37/42/18 35/40/18
f 37/43/19 33/33/19 35/35/19
f 35/40/20 32/32/20 39/41/20
f 35/40/21 34/44/21 32/32/21
f 34/44/22 30/30/22 32/32/22
f 32/32/23 29/29/23 39/41/23
f 32/32/24 31/31/24 29/29/24
f 31/31/25 27/27/25 29/29/25
f 29/29/26 26/45/26 39/41/26
f 29/29/27 28/28/27 26/45/27
f 28/46/28 24/24/28 26/26/28
f 26/45/29 38/39/29 39/41/29
f 26/26/30 25/25/30 38/38/30
f 25/25/31 36/36/31 38/38/31
f 23/47/32 37/37/32 36/36/32
f 23/23/33 18/18/33 37/43/33
f 18/18/34 33/33/34 37/43/34
f 22/48/35 34/34/35 33/33/35
f 22/48/36 15/49/36 34/34/36
f 15/15/37 30/50/37 34/51/37
f 21/52/38 31/53/38 30/50/38
f 21/21/39 12/12/39 31/54/39
f 12/12/40 27/55/40 31/54/40
f 20/20/41 28/56/41 27/55/41
f 20/20/42 9/9/42 28/56/42
f 9/57/43 24/24/43 28/46/43
f 19/19/44 25/25/44 24/24/44
f 19/19/45 6/6/45 25/25/45
f 6/6/46 36/36/46 25/25/46
f 18/18/47 22/48/47 33/33/47
f 18/18/48 17/17/48 22/48/48
f 17/17/49 13/58/49 22/48/49
f 15/15/50 21/52/50 30/50/50
f 15/15/51 14/14/51 21/52/51
f 14/14/52 10/59/52 21/52/52
f 12/12/53 20/20/53 27/55/53
f 12/12/54 11/11/54 20/20/54
f 11/11/55 7/7/55 20/20/55
f 9/57/56 19/19/56 24/24/56
f 9/57/57 8/60/57 19/19/57
f 8/60/58 4/4/58 19/19/58
f 6/6/59 23/47/59 36/36/59
f 6/6/60 5/5/60 23/47/60
f 5/61/61 16/16/61 23/23/61
f 3/62/62 16/16/62 40/63/62
f 3/3/63 41/64/63 17/65/63
f 13/58/64 41/66/64 42/67/64
f 43/68/65 13/13/65 42/69/65
f 43/70/66 2/2/66 14/71/66
f 10/59/67 2/72/67 44/73/67
f 45/74/68 10/10/68 44/75/68
f 45/76/69 46/77/69 11/78/69
f 7/7/70 46/79/70 47/80/70
f 48/81/71 7/82/71 47/83/71
f 48/81/72 1/1/72 8/84/72
f 4/85/73 1/1/73 49/86/73
f 5/87/74 50/88/74 51/89/74
f 51/89/75 16/90/75 5/87/75
f 4/85/76 50/88/76 5/87/76
f 52/91/2 53/92/2 54/93/2
f 55/94/3 56/95/3 57/96/3
f 58/97/4 59/98/4 60/99/4
f 61/100/5 62/101/5 63/102/5
f 64/103/6 65/104/6 66/105/6
f 54/93/7 67/106/7 52/91/7
f 57/96/8 68/107/8 55/94/8
f 60/99/9 69/108/9 58/97/9
f 61/100/10 70/109/10 71/110/10
f 64/103/11 72/111/11 73/112/11
f 74/113/12 75/114/12 76/115/12
f 77/116/13 78/117/13 79/118/13
f 80/119/14 81/120/14 82/121/14
f 83/122/15 84/123/15 85/124/15
f 86/125/16 87/126/16 88/127/16
f 88/128/17 85/129/17 89/130/17
f 88/128/18 87/131/18 85/129/18
f 87/132/19 83/122/19 85/124/19
f 85/129/20 82/121/20 89/130/20
f 85/129/21 84/133/21 82/121/21
f 84/133/22 80/119/22 82/121/22
f 82/121/23 79/118/23 89/130/23
f 82/121/24 81/120/24 79/118/24
f 81/120/25 77/116/25 79/118/25
f 79/118/26 76/134/26 89/130/26
f 79/118/27 78/117/27 76/134/27
f 78/135/28 74/113/28 76/115/28
f 76/134/29 88/128/29 89/130/29
f 76/115/30 75/114/30 88/127/30
f 75/114/31 86/125/31 88/127/31
f 72/136/32 87/126/32 86/125/32
f 72/111/33 66/105/33 87/132/33
f 66/105/34 83/122/34 87/132/34
f 70/137/35 84/123/35 83/122/35
f 70/137/36 63/138/36 84/123/36
f 63/102/37 80/139/37 84/140/37
f 90/141/38 81/142/38 80/139/38
f 90/143/39 60/99/39 81/144/39
f 60/99/40 77/145/40 81/144/40
f 91/146/41 78/147/41 77/145/41
f 91/146/42 57/96/42 78/147/42
f 57/148/43 74/113/43 78/135/43
f 92/149/44 75/114/44 74/113/44
f 92/149/45 54/93/45 75/114/45
f 54/93/46 86/125/46 75/114/46
f 66/105/47 70/137/47 83/122/47
f 93/150/49 71/151/49 70/137/49
f 63/102/50 90/141/50 80/139/50
f 94/152/52 69/153/52 90/141/52
f 60/99/53 91/146/53 77/145/53
f 95/154/55 68/107/55 91/146/55
f 57/148/56 92/149/56 74/113/56
f 96/155/58 67/106/58 92/149/58
f 54/93/59 72/136/59 86/125/59
f 97/156/61 73/112/61 72/111/61
f 54/93/60 97/157/60 72/136/60
f 56/158/57 92/149/57 57/148/57
f 59/98/54 91/146/54 60/99/54
f 63/102/51 94/152/51 90/141/51
f 66/105/48 93/150/48 70/137/48
f 56/159/1 59/160/1 62/161/1
f 98/162/1 99/163/1 100/164/1
f 101/165/2 102/166/2 103/167/2
f 104/168/3 105/169/3 106/170/3
f 107/171/4 108/172/4 109/173/4
f 110/174/5 111/175/5 112/176/5
f 113/177/6 114/178/6 115/179/6
f 101/165/7 103/167/7 116/180/7
f 104/168/8 106/170/8 117/181/8
f 107/171/9 109/173/9 118/182/9
f 110/174/10 112/176/10 119/183/10
f 113/177/11 115/179/11 120/184/11
f 121/185/12 122/186/12 123/187/12
f 124/188/13 125/189/13 126/190/13
f 127/191/14 128/192/14 129/193/14
f 130/194/15 131/195/15 132/196/15
f 133/197/16 134/198/16 135/199/16
f 135/200/17 132/201/17 136/202/17
f 135/200/18 134/203/18 132/201/18
f 134/204/19 130/194/19 132/196/19
f 132/201/20 129/193/20 136/202/20
f 132/201/21 131/205/21 129/193/21
f 131/205/22 127/191/22 129/193/22
f 129/193/23 126/190/23 136/202/23
f 129/193/24 128/192/24 126/190/24
f 128/192/25 124/188/25 126/190/25
f 126/190/26 123/206/26 136/202/26
f 126/190/27 125/189/27 123/206/27
f 125/207/28 121/185/28 123/187/28
f 123/206/29 135/200/29 136/202/29
f 123/187/30 122/186/30 135/199/30
f 122/186/31 133/197/31 135/199/31
f 120/208/32 134/198/32 133/197/32
f 120/184/33 115/179/33 134/204/33
f 115/179/34 130/194/34 134/204/34
f 119/209/35 131/195/35 130/194/35
f 119/209/36 112/210/36 131/195/36
f 112/176/37 127/211/37 131/212/37
f 118/213/38 128/214/38 127/211/38
f 118/182/39 109/173/39 128/215/39
f 109/173/40 124/216/40 128/215/40
f 117/181/41 125/217/41 124/216/41
f 117/181/42 106/170/42 125/217/42
f 106/218/43 121/185/43 125/207/43
f 116/180/44 122/186/44 121/185/44
f 116/180/45 103/167/45 122/186/45
f 103/167/46 133/197/46 122/186/46
f 115/179/47 119/209/47 130/194/47
f 115/179/48 114/178/48 119/209/48
f 114/178/49 110/219/49 119/209/49
f 112/176/50 118/213/50 127/211/50
f 112/176/51 111/175/51 118/213/51
f 111/175/52 107/220/52 118/213/52
f 109/173/53 117/181/53 124/216/53
f 109/173/54 108/172/54 117/181/54
f 108/172/55 104/168/55 117/181/55
f 106/218/56 116/180/56 121/185/56
f 106/218/57 105/221/57 116/180/57
f 105/221/58 101/165/58 116/180/58
f 103/167/59 120/208/59 133/197/59
f 103/167/60 102/166/60 120/208/60
f 102/222/61 113/177/61 120/184/61
f 100/223/62 113/177/62 137/224/62
f 100/164/63 138/225/63 114/226/63
f 110/219/64 138/227/64 139/228/64
f 140/229/65 110/174/65 139/230/65
f 140/231/66 99/163/66 111/232/66
f 107/220/67 99/233/67 141/234/67
f 142/235/68 107/171/68 141/236/68
f 142/237/69 143/238/69 108/239/69
f 104/168/70 143/240/70 144/241/70
f 145/242/71 104/243/71 144/244/71
f 145/242/72 98/162/72 105/245/72
f 101/246/73 98/162/73 146/247/73
f 102/248/74 147/249/74 148/250/74
f 148/250/75 113/251/75 102/248/75
f 101/246/76 147/249/76 102/248/76
f 1/1/1 48/81/1 46/77/1
f 48/81/1 47/83/1 46/77/1
f 46/77/1 45/76/1 1/1/1
f 45/76/1 44/252/1 2/2/1
f 2/2/1 43/70/1 3/3/1
f 43/70/1 42/253/1 41/64/1
f 3/3/1 43/70/1 41/64/1
f 3/3/1 40/254/1 51/89/1
f 51/89/1 50/88/1 1/1/1
f 50/88/1 49/86/1 1/1/1
f 2/2/1 1/1/1 45/76/1
f 3/3/1 51/89/1 1/1/1
f 3/62/62 17/17/62 16/16/62
f 13/58/64 17/17/64 41/66/64
f 43/68/65 14/14/65 13/13/65
f 10/59/67 14/14/67 2/72/67
f 45/74/68 11/11/68 10/10/68
f 7/7/70 11/11/70 46/79/70
f 48/81/71 8/84/71 7/82/71
f 4/85/73 8/84/73 1/1/73
f 51/89/75 40/254/75 16/90/75
f 4/85/76 49/86/76 50/88/76
f 54/93/7 92/149/7 67/106/7
f 57/96/8 91/146/8 68/107/8
f 60/99/9 90/143/9 69/108/9
f 61/100/10 63/102/10 70/109/10
f 64/103/11 66/105/11 72/111/11
f 54/93/60 53/92/60 97/157/60
f 56/158/57 96/155/57 92/149/57
f 59/98/54 95/154/54 91/146/54
f 63/102/51 62/101/51 94/152/51
f 66/105/48 65/104/48 93/150/48
f 62/161/1 61/255/1 71/256/1
f 71/256/1 93/257/1 62/161/1
f 93/257/1 65/258/1 62/161/1
f 65/258/1 64/259/1 73/260/1
f 73/260/1 97/261/1 65/258/1
f 97/261/1 53/262/1 65/258/1
f 53/262/1 52/263/1 67/264/1
f 67/264/1 96/265/1 53/262/1
f 96/265/1 56/159/1 53/262/1
f 56/159/1 55/266/1 68/267/1
f 68/267/1 95/268/1 56/159/1
f 95/268/1 59/160/1 56/159/1
f 59/160/1 58/269/1 69/270/1
f 69/270/1 94/271/1 59/160/1
f 94/271/1 62/161/1 59/160/1
f 62/161/1 65/258/1 53/262/1
f 53/262/1 56/159/1 62/161/1
f 98/162/1 145/242/1 143/238/1
f 145/242/1 144/244/1 143/238/1
f 143/238/1 142/237/1 98/162/1
f 142/237/1 141/272/1 99/163/1
f 99/163/1 140/231/1 100/164/1
f 140/231/1 139/273/1 138/225/1
f 100/164/1 140/231/1 138/225/1
f 100/164/1 137/274/1 148/250/1
f 148/250/1 147/249/1 98/162/1
f 147/249/1 146/247/1 98/162/1
f 99/163/1 98/162/1 142/237/1
f 100/164/1 148/250/1 98/162/1
f 100/223/62 114/178/62 113/177/62
f 110/219/64 114/178/64 138/227/64
f 140/229/65 111/175/65 110/174/65
f 107/220/67 111/175/67 99/233/67
f 142/235/68 108/172/68 107/171/68
f 104/168/70 108/172/70 143/240/70
f 145/242/71 105/245/71 104/243/71
f 101/246/73 105/245/73 98/162/73
f 148/250/75 137/274/75 113/251/75
f 101/246/76 146/247/76 147/249/76
