# Blender v3.3.1 OBJ File: 'house.blend'
# www.blender.org
mtllib house.mtl
o Cube.001_Cube.002
v -5.000000 -2.500000 -2.499408
v -5.000000 2.500000 -2.499408
v 5.000000 -2.500000 -2.499408
v 5.000000 2.500000 -2.499408
v -5.000000 2.500000 -2.499408
v -5.000000 -2.500000 -2.499408
v 5.000000 -2.500000 -2.499408
v 5.000000 2.500000 -2.499408
v -5.000000 2.500000 -2.499408
v -5.000000 -2.500000 -2.499408
v 5.000000 -2.500000 -2.502827
v 5.000000 2.500000 -2.502827
v -3.633012 1.113004 -6.918187
v -3.633012 -1.113004 -6.918187
v 3.633012 -1.113004 -6.921606
v 3.633012 1.113004 -6.921606
v -5.000000 2.500000 -2.499408
v -5.000000 -2.500000 -2.499408
v -3.633012 1.113004 -6.918187
v -3.633012 -1.113004 -6.918187
v -4.636042 0.821313 -3.675900
v -4.636042 -0.821313 -3.675900
v -3.996970 0.365650 -5.741694
v -3.996970 -0.365650 -5.741694
v -3.604430 0.821313 -3.356762
v -3.604430 -0.821313 -3.356762
v -2.965358 0.365650 -5.422556
v -2.965358 -0.365650 -5.422556
v -5.000000 -2.500000 2.500000
v -5.000000 2.500000 2.500000
v -5.000000 -2.500000 -2.500000
v -5.000000 2.500000 -2.500000
v 5.000000 -2.500000 2.500000
v 5.000000 2.500000 2.500000
v 5.000000 -2.500000 -2.500000
v 5.000000 2.500000 -2.500000
v -5.000000 2.500000 2.500000
v -5.000000 2.500000 -2.500000
v 5.000000 2.500000 -2.500000
v 5.000000 2.500000 2.500000
v -1.783697 2.500000 0.891849
v -1.783697 2.500000 -0.891849
v 1.783697 2.500000 -0.891849
v 1.783697 2.500000 0.891849
v -1.783697 2.147745 0.891849
v -1.783697 2.147745 -0.891849
v 1.783697 2.147745 -0.891849
v 1.783697 2.147745 0.891849
v -1.777994 -2.500000 -0.888997
v -1.777994 -2.500000 0.888997
v 1.777994 -2.500000 -0.888997
v 1.777994 -2.500000 0.888997
v -1.777994 -2.147745 -0.888997
v -1.777994 -2.147745 0.888997
v 1.777994 -2.147745 -0.888997
v 1.777994 -2.147745 0.888997
v -5.000000 -0.631062 -1.488961
v -5.000000 -0.631062 2.491128
v -5.000000 0.631062 2.491128
v -5.000000 0.631062 -1.488961
v -4.317860 -0.631062 -1.488961
v -4.317860 -0.631062 2.491128
v -4.317860 0.631062 2.491128
v -4.317860 0.631062 -1.488961
vt 0.207637 0.493079
vt 0.207637 0.493079
vt 0.207637 0.493079
vt 0.207637 0.493079
vt 0.207637 0.493079
vt 0.207637 0.493079
vt 0.207637 0.493079
vt 0.207637 0.493079
vt 0.207637 0.493079
vt 0.207637 0.493079
vt 0.591648 0.926661
vt 0.734166 0.490448
vt 0.788877 0.926661
vt 0.591648 0.926996
vt 0.788877 0.926996
vt 0.591630 0.929349
vt 0.394420 0.929349
vt 0.591630 0.929012
vt 0.197210 0.929439
vt 0.000000 0.929101
vt 0.197210 0.929439
vt 0.256828 0.636385
vt 0.344634 0.493078
vt 0.344634 0.636385
vt 0.420656 0.493326
vt 0.563949 0.492989
vt 0.170973 0.493416
vt 0.207637 0.493079
vt 0.207637 0.493079
vt 0.788877 0.435190
vt 0.873067 0.115869
vt 0.855094 0.319322
vt 0.207637 0.493079
vt 0.207637 0.493079
vt 0.207637 0.493079
vt 0.207637 0.493079
vt 0.229923 0.757361
vt 0.207637 0.931265
vt 0.207637 0.727235
vt 0.931394 0.000000
vt 0.843588 0.000000
vt 0.986105 0.435190
vt 0.901914 0.115869
vt 0.919888 0.319322
vt 0.855094 0.351159
vt 0.901914 0.147706
vt 0.919888 0.351159
vt 0.873067 0.147706
vt 0.207637 0.523205
vt 0.229923 0.697109
vt 0.207637 0.727235
vt 0.822277 0.894442
vt 0.788877 0.829647
vt 0.822277 0.829647
vt 0.394420 0.492989
vt 0.468141 0.099686
vt 0.468141 0.492114
vt 0.986105 0.829647
vt 0.788877 0.632418
vt 0.986105 0.632418
vt 0.591648 0.490447
vt 0.788877 0.000000
vt 0.788877 0.490447
vt 0.986105 0.632418
vt 0.788877 0.435190
vt 0.986105 0.435190
vt 0.394420 0.493065
vt 0.330879 0.158870
vt 0.394420 0.000000
vt 0.207637 0.493079
vt 0.207637 0.493079
vt 0.207637 0.493079
vt 0.197210 0.000014
vt 0.063429 0.158589
vt 0.000000 0.000000
vt 0.207637 0.493079
vt 0.207637 0.493079
vt 0.207637 0.493079
vt 0.207637 0.493079
vt 0.207637 0.493079
vt 0.341075 0.812254
vt 0.327180 0.636385
vt 0.341075 0.636385
vt 0.000000 0.493065
vt 0.133781 0.334490
vt 0.197210 0.493078
vt 0.133781 0.158594
vt 0.063429 0.334485
vt 0.327180 0.636390
vt 0.256828 0.812281
vt 0.256828 0.636385
vt 0.986105 0.000000
vt 1.000000 0.174962
vt 0.986105 0.174962
vt 0.836172 0.829647
vt 0.850067 0.900006
vt 0.836172 0.900006
vt 0.822277 0.829647
vt 0.836172 0.900006
vt 0.822277 0.900006
vt 0.863962 0.899781
vt 0.850067 0.829647
vt 0.863962 0.829647
vt 0.197210 0.000014
vt 0.260751 0.334208
vt 0.197210 0.493078
vt 0.260751 0.158875
vt 0.330878 0.334203
vt 0.256828 0.987624
vt 0.326955 0.812286
vt 0.326955 0.987619
vt 0.341075 0.987560
vt 0.327180 0.812254
vt 0.341075 0.812254
vt 1.000000 0.349364
vt 0.986105 0.174962
vt 1.000000 0.174962
vt 0.877856 0.899781
vt 0.863962 0.829647
vt 0.877856 0.829647
vt 0.891310 0.829647
vt 0.904764 0.879432
vt 0.891310 0.879432
vt 0.591648 0.492989
vt 0.517927 0.099686
vt 0.591648 0.000000
vt 0.394420 0.000000
vt 0.517927 0.492114
vt 0.344634 0.885507
vt 0.394420 0.493079
vt 0.394420 0.885507
vt 0.891310 0.879432
vt 0.877856 0.829647
vt 0.891310 0.829647
vt 0.256828 0.885567
vt 0.243375 0.493080
vt 0.256828 0.493079
vt 0.229923 0.493078
vt 0.243375 0.885568
vt 0.229923 0.885567
vt 0.646359 0.490448
vt 0.394420 0.929349
vt 0.000000 0.929439
vt 0.256828 0.493078
vt 0.027680 0.493079
vt 0.229923 0.961391
vt 0.229923 0.493079
vt 0.788877 0.894442
vt 0.788877 0.829647
vt 0.591648 0.000000
vt 0.788877 0.632418
vt 0.327180 0.812254
vt 0.327180 0.812286
vt 1.000000 0.000000
vt 0.850067 0.829647
vt 0.836172 0.829647
vt 0.850067 0.899781
vt 0.256828 0.812291
vt 0.327180 0.987560
vt 0.986105 0.349364
vt 0.863962 0.899781
vt 0.904764 0.829647
vt 0.344634 0.493079
vt 0.877856 0.879432
vt 0.243375 0.885568
vt 0.243375 0.493079
vn 0.0000 0.0000 1.0000
vn 0.9553 0.0000 -0.2955
vn 1.0000 0.0000 0.0000
vn 0.0000 -1.0000 0.0000
vn -0.0005 0.0000 -1.0000
vn -0.0001 -0.9541 -0.2994
vn -0.0001 0.9541 -0.2995
vn -0.9553 0.0000 -0.2955
vn -0.0609 -0.9785 0.1970
vn -0.2955 0.0000 0.9553
vn -0.0609 0.9785 0.1970
vn 0.2955 0.0000 -0.9553
vn -1.0000 0.0000 0.0000
vn 0.0000 0.0000 -1.0000
vn 0.0000 1.0000 -0.0000
vn -0.0001 -0.9541 -0.2995
vn -0.0001 0.9541 -0.2994
usemtl Material.001
s off
f 4/1/1 7/2/1 8/3/1
f 6/4/1 9/5/1 10/6/1
f 3/7/1 6/4/1 7/2/1
f 2/8/1 8/3/1 5/9/1
f 1/10/1 5/9/1 6/4/1
f 11/11/2 16/12/2 12/13/2
f 7/14/3 12/13/3 8/15/3
f 7/16/4 10/17/4 11/18/4
f 5/19/1 12/20/1 9/21/1
f 13/22/5 15/23/5 14/24/5
f 11/18/6 14/25/6 15/26/6
f 12/20/7 13/27/7 9/21/7
f 10/6/1 17/28/1 18/29/1
f 17/30/8 23/31/8 21/32/8
f 14/33/1 18/29/1 20/34/1
f 13/35/1 20/34/1 19/36/1
f 9/5/1 19/36/1 17/28/1
f 21/37/9 27/38/9 25/39/9
f 20/40/8 23/31/8 19/41/8
f 18/42/8 24/43/8 20/40/8
f 17/30/8 22/44/8 18/42/8
f 25/45/8 28/46/8 26/47/8
f 24/43/10 27/48/10 23/31/10
f 22/49/11 28/50/11 24/51/11
f 21/52/12 26/53/12 22/54/12
f 30/55/13 60/56/13 59/57/13
f 32/58/14 35/59/14 31/60/14
f 36/61/3 33/62/3 35/63/3
f 34/64/1 29/65/1 33/66/1
f 31/67/4 50/68/4 29/69/4
f 34/70/1 39/71/1 40/72/1
f 40/73/15 41/74/15 37/75/15
f 32/76/1 37/77/1 38/78/1
f 30/79/1 40/72/1 37/77/1
f 36/80/1 38/78/1 39/71/1
f 43/81/13 48/82/13 44/83/13
f 38/84/15 43/85/15 39/86/15
f 39/86/15 44/87/15 40/73/15
f 37/75/15 42/88/15 38/84/15
f 46/89/15 48/90/15 47/91/15
f 41/92/3 46/93/3 42/94/3
f 44/95/14 45/96/14 41/97/14
f 42/98/1 47/99/1 43/100/1
f 51/101/1 53/102/1 49/103/1
f 33/104/4 51/105/4 35/106/4
f 29/69/4 52/107/4 33/104/4
f 35/106/4 49/108/4 31/67/4
f 55/109/4 54/110/4 53/111/4
f 52/112/13 55/113/13 51/114/13
f 49/115/3 54/116/3 50/117/3
f 50/118/14 56/119/14 52/120/14
f 57/121/1 64/122/1 60/123/1
f 29/124/13 57/125/13 31/126/13
f 31/126/13 60/56/13 32/127/13
f 30/55/13 58/128/13 29/124/13
f 63/129/13 61/130/13 62/131/13
f 59/132/14 62/133/14 58/134/14
f 60/135/4 63/136/4 59/137/4
f 58/138/15 61/139/15 57/140/15
f 4/1/1 3/7/1 7/2/1
f 6/4/1 5/9/1 9/5/1
f 3/7/1 1/10/1 6/4/1
f 2/8/1 4/1/1 8/3/1
f 1/10/1 2/8/1 5/9/1
f 11/11/2 15/141/2 16/12/2
f 7/14/3 11/11/3 12/13/3
f 7/16/1 6/142/1 10/17/1
f 5/19/15 8/143/15 12/20/15
f 13/22/5 16/144/5 15/23/5
f 11/18/16 10/17/16 14/25/16
f 12/20/17 16/145/17 13/27/17
f 10/6/1 9/5/1 17/28/1
f 17/30/8 19/41/8 23/31/8
f 14/33/1 10/6/1 18/29/1
f 13/35/1 14/33/1 20/34/1
f 9/5/1 13/35/1 19/36/1
f 21/37/9 23/146/9 27/38/9
f 20/40/8 24/43/8 23/31/8
f 18/42/8 22/44/8 24/43/8
f 17/30/8 21/32/8 22/44/8
f 25/45/8 27/48/8 28/46/8
f 24/43/10 28/46/10 27/48/10
f 22/49/11 26/147/11 28/50/11
f 21/52/12 25/148/12 26/53/12
f 30/55/13 32/127/13 60/56/13
f 32/58/14 36/149/14 35/59/14
f 36/61/3 34/150/3 33/62/3
f 34/64/1 30/151/1 29/65/1
f 31/67/4 49/108/4 50/68/4
f 34/70/1 36/80/1 39/71/1
f 40/73/15 44/87/15 41/74/15
f 32/76/1 30/79/1 37/77/1
f 30/79/1 34/70/1 40/72/1
f 36/80/1 32/76/1 38/78/1
f 43/81/13 47/152/13 48/82/13
f 38/84/15 42/88/15 43/85/15
f 39/86/15 43/85/15 44/87/15
f 37/75/15 41/74/15 42/88/15
f 46/89/15 45/153/15 48/90/15
f 41/92/3 45/154/3 46/93/3
f 44/95/14 48/155/14 45/96/14
f 42/98/1 46/156/1 47/99/1
f 51/101/1 55/157/1 53/102/1
f 33/104/4 52/107/4 51/105/4
f 29/69/4 50/68/4 52/107/4
f 35/106/4 51/105/4 49/108/4
f 55/109/4 56/158/4 54/110/4
f 52/112/13 56/159/13 55/113/13
f 49/115/3 53/160/3 54/116/3
f 50/118/14 54/161/14 56/119/14
f 57/121/1 61/162/1 64/122/1
f 29/124/13 58/128/13 57/125/13
f 31/126/13 57/125/13 60/56/13
f 30/55/13 59/57/13 58/128/13
f 63/129/13 64/163/13 61/130/13
f 59/132/14 63/164/14 62/133/14
f 60/135/4 64/165/4 63/136/4
f 58/138/15 62/166/15 61/139/15
