# Blender v3.3.1 OBJ File: 'lantern.blend'
# www.blender.org
mtllib lantern.mtl
o Cylinder_Cylinder.004
v -0.007000 0.000845 -0.001813
v 0.007000 0.000568 -0.001217
v -0.007000 -0.000684 -0.001879
v 0.007000 -0.000459 -0.001262
v -0.007000 -0.001813 -0.000845
v 0.007000 -0.001217 -0.000568
v -0.007000 -0.001879 0.000684
v 0.007000 -0.001262 0.000459
v -0.007000 -0.000845 0.001813
v 0.007000 -0.000568 0.001217
v -0.007000 0.000684 0.001879
v 0.007000 0.000459 0.001262
v -0.007000 0.001813 0.000845
v 0.007000 0.001217 0.000568
v -0.007000 0.001879 -0.000684
v 0.007000 0.001262 -0.000459
v -0.003017 0.000519 -0.001113
v -0.003017 -0.000420 -0.001154
v -0.003017 -0.001113 -0.000519
v -0.003017 -0.001154 0.000420
v -0.003017 -0.000519 0.001113
v -0.003017 0.000420 0.001154
v -0.003017 0.001113 0.000519
v -0.003017 0.001154 -0.000420
v -0.004169 -0.000684 -0.001879
v -0.004169 -0.001813 -0.000845
v -0.004169 -0.001879 0.000684
v -0.004169 -0.000845 0.001813
v -0.004169 0.000684 0.001879
v -0.004169 0.001813 0.000845
v -0.004169 0.001879 -0.000684
v -0.004169 0.000845 -0.001813
v -0.006622 -0.000684 -0.001879
v -0.006622 -0.001813 -0.000845
v -0.006622 -0.001879 0.000684
v -0.006622 -0.000845 0.001813
v -0.006622 0.000684 0.001879
v -0.006622 0.001813 0.000845
v -0.006622 0.001879 -0.000684
v -0.006622 0.000845 -0.001813
v -0.007000 0.000738 -0.001583
v -0.007000 -0.000597 -0.001641
v -0.007000 -0.001583 -0.000738
v -0.007000 -0.001641 0.000597
v -0.007000 -0.000738 0.001583
v -0.007000 0.000597 0.001641
v -0.007000 0.001583 0.000738
v -0.007000 0.001641 -0.000597
v -0.007000 0.000738 -0.001583
v -0.007000 -0.000597 -0.001641
v -0.007000 -0.001583 -0.000738
v -0.007000 -0.001641 0.000597
v -0.007000 -0.000738 0.001583
v -0.007000 0.000597 0.001641
v -0.007000 0.001583 0.000738
v -0.007000 0.001641 -0.000597
v -0.006511 0.000738 -0.001583
v -0.006511 -0.000597 -0.001641
v -0.006511 -0.001583 -0.000738
v -0.006511 -0.001641 0.000597
v -0.006511 -0.000738 0.001583
v -0.006511 0.000597 0.001641
v -0.006511 0.001583 0.000738
v -0.006511 0.001641 -0.000597
v -0.000069 0.001154 -0.000152
v -0.000069 0.001113 0.000251
v -0.000992 0.001113 0.000251
v -0.000992 0.001154 -0.000152
v -0.000069 0.001294 -0.000138
v -0.000069 0.001253 0.000265
v -0.000992 0.001253 0.000265
v -0.000992 0.001294 -0.000138
v 0.005308 0.000519 -0.001113
v 0.005308 -0.000420 -0.001154
v 0.005308 -0.001113 -0.000519
v 0.005308 -0.001154 0.000420
v 0.005308 -0.000519 0.001113
v 0.005308 0.000420 0.001154
v 0.005308 0.001113 0.000519
v 0.005308 0.001154 -0.000420
v 0.005939 0.000568 -0.001217
v 0.005939 -0.000459 -0.001262
v 0.005939 -0.001217 -0.000568
v 0.005939 -0.001262 0.000459
v 0.005939 -0.000568 0.001217
v 0.005939 0.000459 0.001262
v 0.005939 0.001217 0.000568
v 0.005939 0.001262 -0.000459
vt 0.464259 0.002340
vt 0.536786 0.077079
vt 0.464259 0.077104
vt 0.597677 0.000000
vt 0.648962 0.077440
vt 0.597677 0.074739
vt 0.648962 0.002701
vt 0.721492 0.077440
vt 0.227649 0.000000
vt 0.279311 0.077104
vt 0.227649 0.074764
vt 0.279311 0.002340
vt 0.351839 0.077079
vt 0.042701 0.000000
vt 0.094363 0.077104
vt 0.042701 0.074764
vt 0.863049 0.488438
vt 0.914334 0.612253
vt 0.790519 0.663538
vt 0.412597 0.000000
vt 0.412597 0.074764
vt 0.739234 0.184390
vt 0.822465 0.244219
vt 0.815610 0.260766
vt 0.420075 0.705925
vt 0.446834 0.791570
vt 0.369896 0.788086
vt 0.097415 0.708064
vt 0.184948 0.791534
vt 0.076938 0.791570
vt 0.050179 0.705925
vt 0.000000 0.788086
vt 0.282363 0.708064
vt 0.369896 0.791534
vt 0.261886 0.791570
vt 0.184948 0.788086
vt 0.652070 0.708142
vt 0.739234 0.791952
vt 0.631221 0.791952
vt 0.605178 0.705673
vt 0.554844 0.787929
vt 0.467311 0.708064
vt 0.554844 0.791534
vt 0.554844 0.964504
vt 0.446834 0.964540
vt 0.631221 0.964864
vt 0.554844 0.960842
vt 0.739234 0.964864
vt 0.261886 0.964540
vt 0.184948 0.961056
vt 0.369896 0.964504
vt 0.076938 0.964540
vt 0.000000 0.961056
vt 0.184948 0.964504
vt 0.369896 0.961056
vt 0.446834 0.991151
vt 0.369896 0.987666
vt 0.184948 0.991114
vt 0.076938 0.991151
vt 0.000000 0.987666
vt 0.369896 0.991114
vt 0.261886 0.991151
vt 0.184948 0.987666
vt 0.739234 0.991466
vt 0.631221 0.991466
vt 0.554844 0.987444
vt 0.554844 0.991114
vt 0.739234 0.663539
vt 0.739234 0.663539
vt 0.739234 0.663539
vt 0.923623 0.000000
vt 0.822465 0.016548
vt 0.815610 0.000000
vt 0.923623 0.260766
vt 0.983452 0.177535
vt 1.000000 0.184390
vt 0.739234 0.076377
vt 0.755781 0.177535
vt 0.755781 0.083231
vt 1.000000 0.076377
vt 0.916769 0.016548
vt 0.916769 0.244219
vt 0.983452 0.083231
vt 0.810271 0.730757
vt 0.777563 0.664182
vt 0.812060 0.663539
vt 0.739234 0.663539
vt 0.739234 0.663539
vt 0.739234 0.663539
vt 0.739234 0.663539
vt 0.739234 0.663539
vt 0.739234 0.663539
vt 0.739234 0.663539
vt 0.739234 0.663539
vt 0.739234 0.663539
vt 0.739234 0.663539
vt 0.739234 0.663539
vt 0.739234 0.663539
vt 0.739234 0.663539
vt 0.966905 0.327450
vt 0.900221 0.488438
vt 0.739234 0.421754
vt 0.846557 0.730757
vt 0.813850 0.664182
vt 0.848347 0.663539
vt 0.775774 0.824565
vt 0.739234 0.731035
vt 0.773717 0.730283
vt 0.812060 0.825042
vt 0.775774 0.731400
vt 0.848347 0.825042
vt 0.812060 0.731400
vt 0.884634 0.825042
vt 0.848347 0.731400
vt 0.882844 0.730757
vt 0.850137 0.664182
vt 0.884634 0.663539
vt 0.741290 0.664291
vt 0.775774 0.663539
vt 0.831912 0.854248
vt 0.821986 0.825685
vt 0.831912 0.825685
vt 0.163728 0.708042
vt 0.097415 0.121267
vt 0.163728 0.121244
vt 0.767760 0.890471
vt 0.739234 0.825317
vt 0.767760 0.825383
vt 0.868173 0.890796
vt 0.858260 0.825685
vt 0.868173 0.825708
vt 0.848347 0.825685
vt 0.858260 0.890796
vt 0.848347 0.890773
vt 0.821986 0.825685
vt 0.812060 0.854248
vt 0.812060 0.825685
vt 0.166891 0.077079
vt 0.467311 0.121267
vt 0.050179 0.119127
vt 0.282363 0.121267
vt 0.348676 0.708042
vt 0.235127 0.119127
vt 0.235127 0.705925
vt 0.652070 0.121539
vt 0.718384 0.708142
vt 0.605178 0.119070
vt 0.533624 0.708042
vt 0.094363 0.002340
vt 0.166891 0.002315
vt 0.420075 0.119127
vt 0.348676 0.121244
vt 0.718384 0.121539
vt 0.533624 0.121244
vt 0.536786 0.002315
vt 0.721492 0.002701
vt 0.351839 0.002315
vt 0.739234 0.612253
vt 0.739234 0.539723
vt 0.790519 0.488438
vt 0.914334 0.539723
vt 0.863049 0.663538
vt 0.739234 0.327450
vt 0.805917 0.260766
vt 0.900221 0.260766
vt 0.966905 0.421754
vt 0.805917 0.488438
vt 0.741290 0.825317
vt 0.777563 0.825685
vt 0.813850 0.825685
vt 0.850137 0.825685
vt 0.821986 0.854248
vt 0.739234 0.890405
vt 0.858260 0.890773
vt 0.858260 0.825708
vt 0.821986 0.854248
vn 0.0000 0.0436 -0.9990
vn -0.0000 -0.6756 -0.7373
vn -0.0000 -0.9990 -0.0436
vn -0.0000 -0.7373 0.6756
vn -0.0000 -0.0436 0.9990
vn 0.0000 0.6756 0.7373
vn 1.0000 -0.0000 -0.0000
vn 0.0000 0.7373 -0.6756
vn -1.0000 0.0000 0.0000
vn 0.5265 0.6268 -0.5744
vn 0.5265 0.8493 0.0371
vn 0.5265 0.5744 0.6268
vn 0.5265 -0.0371 0.8493
vn 0.5265 -0.6268 0.5744
vn 0.5265 -0.8493 -0.0371
vn 0.5265 -0.5744 -0.6268
vn 0.5265 0.0371 -0.8493
vn 0.0000 0.9990 0.0436
vn 0.0000 0.0000 -1.0000
vn 0.0000 0.0910 -0.9958
vn 0.0000 0.0000 1.0000
vn 0.0000 -0.9077 0.4196
vn 0.0000 -0.8928 -0.4504
vn 0.0000 -0.0910 0.9958
vn 0.0000 0.9949 0.1013
vn -0.0000 -0.1013 0.9949
vn -0.0000 0.1013 -0.9949
vn -0.1660 0.9852 0.0430
vn -0.1660 0.7270 -0.6662
vn -0.1660 0.6662 0.7270
vn -0.1660 -0.0430 0.9852
vn -0.1660 -0.7270 0.6662
vn -0.1660 -0.9852 -0.0430
vn -0.1660 -0.6662 -0.7270
vn -0.1660 0.0430 -0.9852
vn 0.0000 0.9999 0.0149
usemtl Material.001
s off
f 2/1/1 82/2/1 81/3/1
f 4/4/2 83/5/2 82/6/2
f 6/7/3 84/8/3 83/5/3
f 8/9/4 85/10/4 84/11/4
f 10/12/5 86/13/5 85/10/5
f 12/14/6 87/15/6 86/16/6
f 14/17/7 10/18/7 6/19/7
f 16/20/8 81/3/8 88/21/8
f 15/22/9 47/23/9 13/24/9
f 24/25/10 32/26/10 31/27/10
f 23/28/11 31/29/11 30/30/11
f 22/31/12 30/30/12 29/32/12
f 21/33/13 29/34/13 28/35/13
f 27/36/14 21/33/14 28/35/14
f 19/37/15 27/38/15 26/39/15
f 18/40/16 26/39/16 25/41/16
f 17/42/17 25/43/17 32/26/17
f 32/26/1 33/44/1 40/45/1
f 25/41/2 34/46/2 33/47/2
f 26/39/3 35/48/3 34/46/3
f 27/36/4 36/49/4 35/50/4
f 28/35/5 37/51/5 36/49/5
f 29/32/6 38/52/6 37/53/6
f 30/30/18 39/54/18 38/52/18
f 31/27/8 40/45/8 39/55/8
f 39/55/8 1/56/8 15/57/8
f 38/52/18 15/58/18 13/59/18
f 37/53/6 13/59/6 11/60/6
f 36/49/5 11/61/5 9/62/5
f 35/50/4 9/62/4 7/63/4
f 34/46/3 7/64/3 5/65/3
f 33/47/2 5/65/2 3/66/2
f 40/45/1 3/67/1 1/56/1
f 43/68/19 52/69/19 51/70/19
f 5/71/9 42/72/9 3/73/9
f 11/74/9 45/75/9 9/76/9
f 1/77/9 48/78/9 15/22/9
f 3/73/9 41/79/9 1/77/9
f 7/80/9 43/81/9 5/71/9
f 13/24/9 46/82/9 11/74/9
f 9/76/9 44/83/9 7/80/9
f 53/84/8 60/85/8 52/86/8
f 41/87/20 50/88/20 49/89/20
f 48/90/19 49/89/19 56/91/19
f 46/92/21 55/93/21 54/94/21
f 44/95/22 53/96/22 52/69/22
f 42/97/23 51/70/23 50/88/23
f 47/98/21 56/91/21 55/93/21
f 45/99/24 54/94/24 53/96/24
f 60/100/9 62/101/9 64/102/9
f 51/103/6 58/104/6 50/105/6
f 56/106/3 63/107/3 55/108/3
f 54/109/1 61/110/1 53/84/1
f 52/111/18 59/112/18 51/103/18
f 50/113/5 57/114/5 49/115/5
f 49/115/4 64/116/4 56/117/4
f 55/108/2 62/118/2 54/119/2
f 67/120/9 72/121/9 68/122/9
f 24/123/18 79/124/18 80/125/18
f 70/126/25 72/127/25 71/128/25
f 66/129/26 71/130/26 67/131/26
f 68/132/27 69/133/27 65/134/27
f 66/135/7 69/136/7 70/137/7
f 80/125/28 87/15/28 88/138/28
f 24/25/8 73/139/8 17/42/8
f 78/140/6 23/28/6 22/31/6
f 77/141/5 22/142/5 21/33/5
f 76/143/4 21/33/4 20/144/4
f 75/145/3 20/146/3 19/37/3
f 74/147/2 19/37/2 18/40/2
f 73/139/1 18/148/1 17/42/1
f 88/138/18 14/149/18 16/150/18
f 88/21/29 73/139/29 80/151/29
f 86/16/30 79/124/30 78/140/30
f 85/10/31 78/152/31 77/141/31
f 84/11/32 77/141/32 76/143/32
f 75/145/33 84/8/33 76/153/33
f 82/6/34 75/145/34 74/147/34
f 81/3/35 74/154/35 73/139/35
f 2/1/1 4/155/1 82/2/1
f 4/4/2 6/7/2 83/5/2
f 6/7/3 8/156/3 84/8/3
f 8/9/4 10/12/4 85/10/4
f 10/12/5 12/157/5 86/13/5
f 12/14/6 14/149/6 87/15/6
f 6/19/7 4/158/7 2/159/7
f 2/159/7 16/160/7 6/19/7
f 16/160/7 14/17/7 6/19/7
f 14/17/7 12/161/7 10/18/7
f 10/18/7 8/162/7 6/19/7
f 16/20/8 2/1/8 81/3/8
f 15/22/9 48/78/9 47/23/9
f 24/25/10 17/42/10 32/26/10
f 23/28/11 24/123/11 31/29/11
f 22/31/12 23/28/12 30/30/12
f 21/33/13 22/142/13 29/34/13
f 27/36/14 20/144/14 21/33/14
f 19/37/15 20/146/15 27/38/15
f 18/40/16 19/37/16 26/39/16
f 17/42/17 18/148/17 25/43/17
f 32/26/1 25/43/1 33/44/1
f 25/41/2 26/39/2 34/46/2
f 26/39/3 27/38/3 35/48/3
f 27/36/4 28/35/4 36/49/4
f 28/35/5 29/34/5 37/51/5
f 29/32/6 30/30/6 38/52/6
f 30/30/18 31/29/18 39/54/18
f 31/27/8 32/26/8 40/45/8
f 39/55/8 40/45/8 1/56/8
f 38/52/18 39/54/18 15/58/18
f 37/53/6 38/52/6 13/59/6
f 36/49/5 37/51/5 11/61/5
f 35/50/4 36/49/4 9/62/4
f 34/46/3 35/48/3 7/64/3
f 33/47/2 34/46/2 5/65/2
f 40/45/1 33/44/1 3/67/1
f 43/68/19 44/95/19 52/69/19
f 5/71/9 43/81/9 42/72/9
f 11/74/9 46/82/9 45/75/9
f 1/77/9 41/79/9 48/78/9
f 3/73/9 42/72/9 41/79/9
f 7/80/9 44/83/9 43/81/9
f 13/24/9 47/23/9 46/82/9
f 9/76/9 45/75/9 44/83/9
f 53/84/8 61/110/8 60/85/8
f 41/87/19 42/97/19 50/88/19
f 48/90/19 41/87/19 49/89/19
f 46/92/21 47/98/21 55/93/21
f 44/95/22 45/99/22 53/96/22
f 42/97/23 43/68/23 51/70/23
f 47/98/36 48/90/36 56/91/36
f 45/99/21 46/92/21 54/94/21
f 64/102/9 57/163/9 58/164/9
f 58/164/9 59/165/9 60/100/9
f 60/100/9 61/166/9 62/101/9
f 62/101/9 63/167/9 64/102/9
f 64/102/9 58/164/9 60/100/9
f 51/103/6 59/112/6 58/104/6
f 56/106/3 64/168/3 63/107/3
f 54/109/1 62/169/1 61/110/1
f 52/111/18 60/170/18 59/112/18
f 50/113/5 58/171/5 57/114/5
f 49/115/4 57/114/4 64/116/4
f 55/108/2 63/107/2 62/118/2
f 67/120/9 71/172/9 72/121/9
f 24/123/18 23/28/18 79/124/18
f 70/126/25 69/173/25 72/127/25
f 66/129/26 70/174/26 71/130/26
f 68/132/27 72/175/27 69/133/27
f 66/135/7 65/176/7 69/136/7
f 80/125/28 79/124/28 87/15/28
f 24/25/8 80/151/8 73/139/8
f 78/140/6 79/124/6 23/28/6
f 77/141/5 78/152/5 22/142/5
f 76/143/4 77/141/4 21/33/4
f 75/145/3 76/153/3 20/146/3
f 74/147/2 75/145/2 19/37/2
f 73/139/1 74/154/1 18/148/1
f 88/138/18 87/15/18 14/149/18
f 88/21/29 81/3/29 73/139/29
f 86/16/30 87/15/30 79/124/30
f 85/10/31 86/13/31 78/152/31
f 84/11/32 85/10/32 77/141/32
f 75/145/33 83/5/33 84/8/33
f 82/6/34 83/5/34 75/145/34
f 81/3/35 82/2/35 74/154/35
