# Blender v3.3.1 OBJ File: 'lantern.blend'
# www.blender.org
o Cylinder_Cylinder.004
v -0.007000 0.000845 -0.001813
v 0.007000 0.000568 -0.001217
v -0.007000 -0.000684 -0.001879
v 0.007000 -0.000459 -0.001262
v -0.007000 -0.001813 -0.000845
v 0.007000 -0.001217 -0.000568
v -0.007000 -0.001879 0.000684
v 0.007000 -0.001262 0.000459
v -0.007000 -0.000845 0.001813
v 0.007000 -0.000568 0.001217
v -0.007000 0.000684 0.001879
v 0.007000 0.000459 0.001262
v -0.007000 0.001813 0.000845
v 0.007000 0.001217 0.000568
v -0.007000 0.001879 -0.000684
v 0.007000 0.001262 -0.000459
v -0.003017 0.000519 -0.001113
v -0.003017 -0.000420 -0.001154
v -0.003017 -0.001113 -0.000519
v -0.003017 -0.001154 0.000420
v -0.003017 -0.000519 0.001113
v -0.003017 0.000420 0.001154
v -0.003017 0.001113 0.000519
v -0.003017 0.001154 -0.000420
v -0.004169 -0.000684 -0.001879
v -0.004169 -0.001813 -0.000845
v -0.004169 -0.001879 0.000684
v -0.004169 -0.000845 0.001813
v -0.004169 0.000684 0.001879
v -0.004169 0.001813 0.000845
v -0.004169 0.001879 -0.000684
v -0.004169 0.000845 -0.001813
v -0.006622 -0.000684 -0.001879
v -0.006622 -0.001813 -0.000845
v -0.006622 -0.001879 0.000684
v -0.006622 -0.000845 0.001813
v -0.006622 0.000684 0.001879
v -0.006622 0.001813 0.000845
v -0.006622 0.001879 -0.000684
v -0.006622 0.000845 -0.001813
v -0.007000 0.000738 -0.001583
v -0.007000 -0.000597 -0.001641
v -0.007000 -0.001583 -0.000738
v -0.007000 -0.001641 0.000597
v -0.007000 -0.000738 0.001583
v -0.007000 0.000597 0.001641
v -0.007000 0.001583 0.000738
v -0.007000 0.001641 -0.000597
v -0.007000 0.000738 -0.001583
v -0.007000 -0.000597 -0.001641
v -0.007000 -0.001583 -0.000738
v -0.007000 -0.001641 0.000597
v -0.007000 -0.000738 0.001583
v -0.007000 0.000597 0.001641
v -0.007000 0.001583 0.000738
v -0.007000 0.001641 -0.000597
v -0.006511 0.000738 -0.001583
v -0.006511 -0.000597 -0.001641
v -0.006511 -0.001583 -0.000738
v -0.006511 -0.001641 0.000597
v -0.006511 -0.000738 0.001583
v -0.006511 0.000597 0.001641
v -0.006511 0.001583 0.000738
v -0.006511 0.001641 -0.000597
v -0.000069 0.001154 -0.000152
v -0.000069 0.001113 0.000251
v -0.000992 0.001113 0.000251
v -0.000992 0.001154 -0.000152
v -0.000069 0.001294 -0.000138
v -0.000069 0.001253 0.000265
v -0.000992 0.001253 0.000265
v -0.000992 0.001294 -0.000138
v 0.005308 0.000519 -0.001113
v 0.005308 -0.000420 -0.001154
v 0.005308 -0.001113 -0.000519
v 0.005308 -0.001154 0.000420
v 0.005308 -0.000519 0.001113
v 0.005308 0.000420 0.001154
v 0.005308 0.001113 0.000519
v 0.005308 0.001154 -0.000420
v 0.005939 0.000568 -0.001217
v 0.005939 -0.000459 -0.001262
v 0.005939 -0.001217 -0.000568
v 0.005939 -0.001262 0.000459
v 0.005939 -0.000568 0.001217
v 0.005939 0.000459 0.001262
v 0.005939 0.001217 0.000568
v 0.005939 0.001262 -0.000459
vn 0.0000 0.0436 -0.9990
vn -0.0000 -0.6756 -0.7373
vn -0.0000 -0.9990 -0.0436
vn -0.0000 -0.7373 0.6756
vn -0.0000 -0.0436 0.9990
vn 0.0000 0.6756 0.7373
vn 1.0000 -0.0000 -0.0000
vn 0.0000 0.7373 -0.6756
vn -1.0000 0.0000 0.0000
vn 0.5265 0.6268 -0.5744
vn 0.5265 0.8493 0.0371
vn 0.5265 0.5744 0.6268
vn 0.5265 -0.0371 0.8493
vn 0.5265 -0.6268 0.5744
vn 0.5265 -0.8493 -0.0371
vn 0.5265 -0.5744 -0.6268
vn 0.5265 0.0371 -0.8493
vn 0.0000 0.9990 0.0436
vn 0.0000 0.0000 -1.0000
vn 0.0000 0.0910 -0.9958
vn 0.0000 0.0000 1.0000
vn 0.0000 -0.9077 0.4196
vn 0.0000 -0.8928 -0.4504
vn 0.0000 -0.0910 0.9958
vn 0.0000 0.9949 0.1013
vn -0.0000 -0.1013 0.9949
vn -0.0000 0.1013 -0.9949
vn -0.1660 0.9852 0.0430
vn -0.1660 0.7270 -0.6662
vn -0.1660 0.6662 0.7270
vn -0.1660 -0.0430 0.9852
vn -0.1660 -0.7270 0.6662
vn -0.1660 -0.9852 -0.0430
vn -0.1660 -0.6662 -0.7270
vn -0.1660 0.0430 -0.9852
vn 0.0000 0.9999 0.0149
s off
f 2//1 82//1 81//1
f 4//2 83//2 82//2
f 6//3 84//3 83//3
f 8//4 85//4 84//4
f 10//5 86//5 85//5
f 12//6 87//6 86//6
f 14//7 10//7 6//7
f 16//8 81//8 88//8
f 15//9 47//9 13//9
f 24//10 32//10 31//10
f 23//11 31//11 30//11
f 22//12 30//12 29//12
f 21//13 29//13 28//13
f 27//14 21//14 28//14
f 19//15 27//15 26//15
f 18//16 26//16 25//16
f 17//17 25//17 32//17
f 32//1 33//1 40//1
f 25//2 34//2 33//2
f 26//3 35//3 34//3
f 27//4 36//4 35//4
f 28//5 37//5 36//5
f 29//6 38//6 37//6
f 30//18 39//18 38//18
f 31//8 40//8 39//8
f 39//8 1//8 15//8
f 38//18 15//18 13//18
f 37//6 13//6 11//6
f 36//5 11//5 9//5
f 35//4 9//4 7//4
f 34//3 7//3 5//3
f 33//2 5//2 3//2
f 40//1 3//1 1//1
f 43//19 52//19 51//19
f 5//9 42//9 3//9
f 11//9 45//9 9//9
f 1//9 48//9 15//9
f 3//9 41//9 1//9
f 7//9 43//9 5//9
f 13//9 46//9 11//9
f 9//9 44//9 7//9
f 53//8 60//8 52//8
f 41//20 50//20 49//20
f 48//19 49//19 56//19
f 46//21 55//21 54//21
f 44//22 53//22 52//22
f 42//23 51//23 50//23
f 47//21 56//21 55//21
f 45//24 54//24 53//24
f 60//9 62//9 64//9
f 51//6 58//6 50//6
f 56//3 63//3 55//3
f 54//1 61//1 53//1
f 52//18 59//18 51//18
f 50//5 57//5 49//5
f 49//4 64//4 56//4
f 55//2 62//2 54//2
f 67//9 72//9 68//9
f 24//18 79//18 80//18
f 70//25 72//25 71//25
f 66//26 71//26 67//26
f 68//27 69//27 65//27
f 66//7 69//7 70//7
f 80//28 87//28 88//28
f 24//8 73//8 17//8
f 78//6 23//6 22//6
f 77//5 22//5 21//5
f 76//4 21//4 20//4
f 75//3 20//3 19//3
f 74//2 19//2 18//2
f 73//1 18//1 17//1
f 88//18 14//18 16//18
f 88//29 73//29 80//29
f 86//30 79//30 78//30
f 85//31 78//31 77//31
f 84//32 77//32 76//32
f 75//33 84//33 76//33
f 82//34 75//34 74//34
f 81//35 74//35 73//35
f 2//1 4//1 82//1
f 4//2 6//2 83//2
f 6//3 8//3 84//3
f 8//4 10//4 85//4
f 10//5 12//5 86//5
f 12//6 14//6 87//6
f 6//7 4//7 2//7
f 2//7 16//7 6//7
f 16//7 14//7 6//7
f 14//7 12//7 10//7
f 10//7 8//7 6//7
f 16//8 2//8 81//8
f 15//9 48//9 47//9
f 24//10 17//10 32//10
f 23//11 24//11 31//11
f 22//12 23//12 30//12
f 21//13 22//13 29//13
f 27//14 20//14 21//14
f 19//15 20//15 27//15
f 18//16 19//16 26//16
f 17//17 18//17 25//17
f 32//1 25//1 33//1
f 25//2 26//2 34//2
f 26//3 27//3 35//3
f 27//4 28//4 36//4
f 28//5 29//5 37//5
f 29//6 30//6 38//6
f 30//18 31//18 39//18
f 31//8 32//8 40//8
f 39//8 40//8 1//8
f 38//18 39//18 15//18
f 37//6 38//6 13//6
f 36//5 37//5 11//5
f 35//4 36//4 9//4
f 34//3 35//3 7//3
f 33//2 34//2 5//2
f 40//1 33//1 3//1
f 43//19 44//19 52//19
f 5//9 43//9 42//9
f 11//9 46//9 45//9
f 1//9 41//9 48//9
f 3//9 42//9 41//9
f 7//9 44//9 43//9
f 13//9 47//9 46//9
f 9//9 45//9 44//9
f 53//8 61//8 60//8
f 41//19 42//19 50//19
f 48//19 41//19 49//19
f 46//21 47//21 55//21
f 44//22 45//22 53//22
f 42//23 43//23 51//23
f 47//36 48//36 56//36
f 45//21 46//21 54//21
f 64//9 57//9 58//9
f 58//9 59//9 60//9
f 60//9 61//9 62//9
f 62//9 63//9 64//9
f 64//9 58//9 60//9
f 51//6 59//6 58//6
f 56//3 64//3 63//3
f 54//1 62//1 61//1
f 52//18 60//18 59//18
f 50//5 58//5 57//5
f 49//4 57//4 64//4
f 55//2 63//2 62//2
f 67//9 71//9 72//9
f 24//18 23//18 79//18
f 70//25 69//25 72//25
f 66//26 70//26 71//26
f 68//27 72//27 69//27
f 66//7 65//7 69//7
f 80//28 79//28 87//28
f 24//8 80//8 73//8
f 78//6 79//6 23//6
f 77//5 78//5 22//5
f 76//4 77//4 21//4
f 75//3 76//3 20//3
f 74//2 75//2 19//2
f 73//1 74//1 18//1
f 88//18 87//18 14//18
f 88//29 81//29 73//29
f 86//30 87//30 79//30
f 85//31 86//31 78//31
f 84//32 85//32 77//32
f 75//33 83//33 84//33
f 82//34 83//34 75//34
f 81//35 82//35 74//35
