# Blender v3.2.0 OBJ File: ''
# www.blender.org
mtllib lantern.mtl
o Cylinder_Cylinder.004
v 0.060850 0.028400 0.350000
v 0.063100 -0.022950 0.296950
v 0.060850 0.028400 0.296950
v 0.063100 -0.022950 0.350000
v 0.028400 -0.060850 0.296950
v 0.028400 -0.060850 0.350000
v -0.022950 -0.063100 0.296950
v -0.022950 -0.063100 0.350000
v -0.060850 -0.028400 0.296950
v -0.060850 -0.028400 0.350000
v -0.063100 0.022950 0.296950
v -0.063100 0.022950 0.350000
v -0.028400 0.060850 0.296950
v -0.028400 0.060850 0.350000
v 0.022950 0.063100 0.350000
v 0.022950 0.063100 0.296950
v 0.034200 0.093950 -0.350000
v -0.036900 0.079150 -0.350000
v -0.042250 0.090650 -0.350000
v 0.021000 0.057700 -0.150850
v 0.090650 0.042250 -0.208450
v 0.034200 0.093950 -0.208450
v -0.025950 0.055650 -0.150850
v -0.042250 0.090650 -0.208450
v -0.057700 0.021000 -0.150850
v -0.093950 0.034200 -0.208450
v -0.055650 -0.025950 -0.150850
v -0.090650 -0.042250 -0.208450
v -0.034200 -0.093950 -0.208450
v 0.025950 -0.055650 -0.150850
v 0.042250 -0.090650 -0.208450
v 0.057700 -0.021000 -0.150850
v 0.093950 -0.034200 -0.208450
v 0.055650 0.025950 -0.150850
v 0.093950 -0.034200 -0.331100
v 0.090650 0.042250 -0.331100
v 0.042250 -0.090650 -0.331100
v -0.034200 -0.093950 -0.331100
v -0.090650 -0.042250 -0.331100
v -0.093950 0.034200 -0.331100
v -0.042250 0.090650 -0.331100
v 0.034200 0.093950 -0.331100
v 0.090650 0.042250 -0.350000
v -0.093950 0.034200 -0.350000
v -0.090650 -0.042250 -0.350000
v -0.034200 -0.093950 -0.350000
v 0.042250 -0.090650 -0.350000
v 0.093950 -0.034200 -0.350000
v 0.036900 -0.079150 -0.350000
v -0.029850 -0.082050 -0.350000
v 0.036900 -0.079150 -0.350000
v 0.082050 -0.029850 -0.350000
v -0.079150 -0.036900 -0.350000
v 0.029850 0.082050 -0.350000
v 0.079150 0.036900 -0.350000
v -0.082050 0.029850 -0.350000
v -0.029850 -0.082050 -0.350000
v -0.079150 -0.036900 -0.350000
v -0.029850 -0.082050 -0.325550
v 0.082050 -0.029850 -0.350000
v 0.079150 0.036900 -0.350000
v 0.029850 0.082050 -0.350000
v -0.036900 0.079150 -0.350000
v -0.082050 0.029850 -0.350000
v -0.082050 0.029850 -0.325550
v 0.029850 0.082050 -0.325550
v 0.082050 -0.029850 -0.325550
v -0.036900 0.079150 -0.325550
v -0.079150 -0.036900 -0.325550
v 0.036900 -0.079150 -0.325550
v 0.079150 0.036900 -0.325550
v -0.012550 0.055650 -0.049600
v 0.006900 0.064700 -0.049600
v 0.007600 0.057700 -0.049600
v -0.025950 0.055650 0.265400
v 0.021000 0.057700 0.265400
v -0.013250 0.062650 -0.003450
v -0.013250 0.062650 -0.049600
v -0.012550 0.055650 -0.003450
v 0.006900 0.064700 -0.003450
v 0.007600 0.057700 -0.003450
v 0.055650 0.025950 0.265400
v -0.057700 0.021000 0.265400
v -0.055650 -0.025950 0.265400
v -0.021000 -0.057700 0.265400
v -0.021000 -0.057700 -0.150850
v 0.025950 -0.055650 0.265400
v 0.057700 -0.021000 0.265400
vt 0.464259 0.002340
vt 0.536786 0.077079
vt 0.464259 0.077104
vt 0.597677 0.000000
vt 0.648962 0.077440
vt 0.597677 0.074739
vt 0.648962 0.002701
vt 0.721492 0.077440
vt 0.227649 0.000000
vt 0.279311 0.077104
vt 0.227649 0.074764
vt 0.279311 0.002340
vt 0.351839 0.077079
vt 0.042701 0.000000
vt 0.094363 0.077104
vt 0.042701 0.074764
vt 0.863049 0.488438
vt 0.914334 0.612253
vt 0.790519 0.663538
vt 0.412597 0.000000
vt 0.412597 0.074764
vt 0.739234 0.184390
vt 0.822465 0.244219
vt 0.815610 0.260766
vt 0.420075 0.705925
vt 0.446834 0.791570
vt 0.369896 0.788086
vt 0.097415 0.708064
vt 0.184948 0.791534
vt 0.076938 0.791570
vt 0.050179 0.705925
vt 0.000000 0.788086
vt 0.282363 0.708064
vt 0.369896 0.791534
vt 0.261886 0.791570
vt 0.184948 0.788086
vt 0.652070 0.708142
vt 0.739234 0.791952
vt 0.631221 0.791952
vt 0.605178 0.705673
vt 0.554844 0.787929
vt 0.467311 0.708064
vt 0.554844 0.791534
vt 0.554844 0.964504
vt 0.446834 0.964540
vt 0.631221 0.964864
vt 0.554844 0.960842
vt 0.739234 0.964864
vt 0.261886 0.964540
vt 0.184948 0.961056
vt 0.369896 0.964504
vt 0.076938 0.964540
vt 0.000000 0.961056
vt 0.184948 0.964504
vt 0.369896 0.961056
vt 0.446834 0.991151
vt 0.369896 0.987666
vt 0.184948 0.991114
vt 0.076938 0.991151
vt 0.000000 0.987666
vt 0.369896 0.991114
vt 0.261886 0.991151
vt 0.184948 0.987666
vt 0.739234 0.991466
vt 0.631221 0.991466
vt 0.554844 0.987444
vt 0.554844 0.991114
vt 0.739234 0.663539
vt 0.739234 0.663539
vt 0.739234 0.663539
vt 0.923623 0.000000
vt 0.822465 0.016548
vt 0.815610 0.000000
vt 0.923623 0.260766
vt 0.983452 0.177535
vt 1.000000 0.184390
vt 0.739234 0.076377
vt 0.755781 0.177535
vt 0.755781 0.083231
vt 1.000000 0.076377
vt 0.916769 0.016548
vt 0.916769 0.244219
vt 0.983452 0.083231
vt 0.810271 0.730757
vt 0.777563 0.664182
vt 0.812060 0.663539
vt 0.739234 0.663539
vt 0.739234 0.663539
vt 0.739234 0.663539
vt 0.739234 0.663539
vt 0.739234 0.663539
vt 0.739234 0.663539
vt 0.739234 0.663539
vt 0.739234 0.663539
vt 0.739234 0.663539
vt 0.739234 0.663539
vt 0.739234 0.663539
vt 0.739234 0.663539
vt 0.739234 0.663539
vt 0.966905 0.327450
vt 0.900221 0.488438
vt 0.739234 0.421754
vt 0.846557 0.730757
vt 0.813850 0.664182
vt 0.848347 0.663539
vt 0.775774 0.824565
vt 0.739234 0.731035
vt 0.773717 0.730283
vt 0.812060 0.825042
vt 0.775774 0.731400
vt 0.848347 0.825042
vt 0.812060 0.731400
vt 0.884634 0.825042
vt 0.848347 0.731400
vt 0.882844 0.730757
vt 0.850137 0.664182
vt 0.884634 0.663539
vt 0.741290 0.664291
vt 0.775774 0.663539
vt 0.831912 0.854248
vt 0.821986 0.825685
vt 0.831912 0.825685
vt 0.163728 0.708042
vt 0.097415 0.121267
vt 0.163728 0.121244
vt 0.767760 0.890471
vt 0.739234 0.825317
vt 0.767760 0.825383
vt 0.868173 0.890796
vt 0.858260 0.825685
vt 0.868173 0.825708
vt 0.848347 0.825685
vt 0.858260 0.890796
vt 0.848347 0.890773
vt 0.821986 0.825685
vt 0.812060 0.854248
vt 0.812060 0.825685
vt 0.166891 0.077079
vt 0.467311 0.121267
vt 0.050179 0.119127
vt 0.282363 0.121267
vt 0.348676 0.708042
vt 0.235127 0.119127
vt 0.235127 0.705925
vt 0.652070 0.121539
vt 0.718384 0.708142
vt 0.605178 0.119070
vt 0.533624 0.708042
vt 0.094363 0.002340
vt 0.166891 0.002315
vt 0.420075 0.119127
vt 0.348676 0.121244
vt 0.718384 0.121539
vt 0.533624 0.121244
vt 0.536786 0.002315
vt 0.721492 0.002701
vt 0.351839 0.002315
vt 0.739234 0.612253
vt 0.739234 0.539723
vt 0.790519 0.488438
vt 0.914334 0.539723
vt 0.863049 0.663538
vt 0.739234 0.327450
vt 0.805917 0.260766
vt 0.900221 0.260766
vt 0.966905 0.421754
vt 0.805917 0.488438
vt 0.741290 0.825317
vt 0.777563 0.825685
vt 0.813850 0.825685
vt 0.850137 0.825685
vt 0.821986 0.854248
vt 0.739234 0.890405
vt 0.858260 0.890773
vt 0.858260 0.825708
vt 0.821986 0.854248
vn 0.9991 0.0434 0.0000
vn 0.7376 -0.6753 0.0000
vn 0.0434 -0.9991 0.0000
vn 0.0433 -0.9991 0.0000
vn -0.6753 -0.7376 -0.0000
vn -0.9991 -0.0434 -0.0000
vn -0.7376 0.6753 -0.0000
vn -0.0000 0.0000 1.0000
vn 0.6753 0.7376 0.0000
vn -0.0000 0.0000 -1.0000
vn 0.5744 0.6267 0.5266
vn 0.5743 0.6270 0.5263
vn 0.5743 0.6271 0.5263
vn -0.0369 0.8495 0.5263
vn -0.0368 0.8495 0.5264
vn -0.0371 0.8493 0.5265
vn -0.6266 0.5744 0.5266
vn -0.6270 0.5743 0.5263
vn -0.6268 0.5744 0.5265
vn -0.8495 -0.0369 0.5263
vn -0.8493 -0.0371 0.5265
vn -0.8494 -0.0367 0.5265
vn -0.5743 -0.6270 0.5263
vn -0.5744 -0.6268 0.5265
vn 0.0369 -0.8495 0.5263
vn 0.0368 -0.8495 0.5264
vn 0.0371 -0.8493 0.5265
vn 0.6266 -0.5744 0.5266
vn 0.6270 -0.5743 0.5263
vn 0.6268 -0.5744 0.5265
vn 0.8495 0.0369 0.5263
vn 0.8493 0.0371 0.5265
vn 0.8494 0.0367 0.5265
vn 0.9991 0.0435 -0.0000
vn 0.9990 0.0437 0.0000
vn 0.7375 -0.6754 0.0000
vn 0.0435 -0.9991 -0.0000
vn 0.0437 -0.9990 0.0000
vn -0.6754 -0.7375 -0.0000
vn -0.9991 -0.0435 -0.0000
vn -0.9990 -0.0437 -0.0000
vn -0.7375 0.6754 -0.0000
vn -0.0435 0.9991 -0.0000
vn -0.0437 0.9990 0.0000
vn 0.6754 0.7375 0.0000
vn -0.0436 0.9990 0.0000
vn -0.9990 -0.0436 0.0000
vn 0.0436 -0.9990 0.0000
vn 0.9990 0.0436 0.0000
vn -0.0230 0.5292 -0.8482
vn -0.0331 0.7610 -0.6479
vn 0.0000 0.0000 -0.9055
vn -0.0045 0.1057 -0.9944
vn -0.0027 0.0615 -0.9981
vn 0.0000 0.0000 -0.9944
vn 0.2739 0.2991 -0.9141
vn 0.2188 0.2389 -0.9461
vn 0.0000 0.0000 -0.9544
vn 0.7330 -0.6717 -0.1071
vn 0.5499 -0.5036 0.6663
vn 0.0000 0.0000 0.0249
vn -0.4354 -0.4754 -0.7645
vn -0.6755 -0.7371 0.0206
vn 0.0000 0.0000 -0.7011
vn 0.0040 -0.0922 0.9957
vn 0.0038 -0.0885 0.9961
vn 0.0000 0.0000 0.9957
vn 0.0439 -0.9990 0.0000
vn 0.9990 0.0439 0.0000
vn -0.0434 0.9991 -0.0000
vn -0.0439 0.9990 -0.0000
vn -0.9990 -0.0439 0.0000
vn -0.1012 0.9949 -0.0000
vn -0.9949 -0.1013 0.0000
vn 0.9949 0.1013 0.0000
vn -0.0429 0.9852 -0.1661
vn -0.0431 0.9852 -0.1658
vn -0.0432 0.9852 -0.1660
vn 0.6756 0.7373 0.0000
vn -0.7373 0.6756 -0.0000
vn -0.6756 -0.7373 -0.0000
vn 0.7373 -0.6756 0.0000
vn 0.6661 0.7272 -0.1659
vn 0.6660 0.7272 -0.1660
vn 0.6662 0.7271 -0.1656
vn -0.7272 0.6661 -0.1659
vn -0.7272 0.6660 -0.1660
vn -0.7271 0.6662 -0.1656
vn -0.9852 -0.0429 -0.1661
vn -0.9852 -0.0430 -0.1661
vn -0.6661 -0.7272 -0.1659
vn -0.6660 -0.7272 -0.1660
vn -0.6662 -0.7271 -0.1656
vn 0.0428 -0.9851 -0.1663
vn 0.0429 -0.9852 -0.1662
vn 0.0430 -0.9852 -0.1660
vn 0.7272 -0.6661 -0.1659
vn 0.7272 -0.6660 -0.1660
vn 0.7271 -0.6662 -0.1656
vn 0.9852 0.0429 -0.1661
vn 0.9852 0.0430 -0.1661
vn 0.7372 -0.6756 0.0000
vn -0.6755 -0.7373 0.0000
vn -0.7372 0.6756 -0.0000
vn 0.6755 0.7373 -0.0000
vn 0.5744 0.6269 0.5264
vn -0.0371 0.8496 0.5262
vn -0.6269 0.5744 0.5264
vn -0.8494 -0.0371 0.5265
vn -0.5745 -0.6270 0.5262
vn 0.0371 -0.8496 0.5262
vn 0.6269 -0.5744 0.5264
vn 0.8494 0.0371 0.5265
vn 0.0000 0.0000 -0.8211
vn 0.0292 0.0013 -0.9996
vn 0.0000 0.0000 -0.9999
vn 0.0145 0.0006 -0.9999
vn 0.0000 0.0000 -0.9679
vn 0.0000 0.0000 0.6215
vn 0.0000 0.0000 -0.1045
vn 0.7089 0.0308 0.7046
vn 0.0000 0.0000 -0.6006
vn 0.7988 0.0347 -0.6006
vn -0.0430 0.9852 -0.1657
vn -0.0433 0.9991 -0.0000
vn 0.6659 0.7273 -0.1662
vn -0.7273 0.6659 -0.1662
vn -0.9852 -0.0428 -0.1660
vn -0.6659 -0.7273 -0.1662
vn 0.7273 -0.6659 -0.1662
vn 0.9852 0.0428 -0.1660
usemtl Material.001
s 1
f 1/1/1 2/2/1 3/3/1
f 4/4/2 5/5/2 2/6/2
f 6/7/3 7/8/3 5/5/4
f 8/9/5 9/10/5 7/11/5
f 10/12/6 11/13/6 9/10/6
f 12/14/7 13/15/7 11/16/7
f 14/17/8 10/18/8 6/19/8
f 15/20/9 3/3/9 16/21/9
f 17/22/10 18/23/10 19/24/10
f 20/25/11 21/26/12 22/27/13
f 23/28/14 22/29/15 24/30/16
f 25/31/17 24/30/18 26/32/19
f 27/33/20 26/34/21 28/35/22
f 29/36/23 27/33/24 28/35/24
f 30/37/25 29/38/26 31/39/27
f 32/40/28 31/39/29 33/41/30
f 34/42/31 33/43/32 21/26/33
f 21/26/34 35/44/35 36/45/35
f 33/41/36 37/46/36 35/47/36
f 31/39/37 38/48/38 37/46/38
f 29/36/39 39/49/39 38/50/39
f 28/35/40 40/51/41 39/49/41
f 26/32/42 41/52/42 40/53/42
f 24/30/43 42/54/44 41/52/44
f 22/27/45 36/45/45 42/55/45
f 42/55/45 43/56/45 17/57/45
f 41/52/44 17/58/46 19/59/44
f 40/53/42 19/59/42 44/60/42
f 39/49/41 44/61/47 45/62/41
f 38/50/39 45/62/39 46/63/39
f 37/46/38 46/64/48 47/65/38
f 35/47/36 47/65/36 48/66/36
f 36/45/35 48/67/49 43/56/35
f 49/68/50 50/69/51 51/70/52
f 47/71/10 52/72/10 48/73/10
f 44/74/10 53/75/10 45/76/10
f 43/77/10 54/78/10 17/22/10
f 48/73/10 55/79/10 43/77/10
f 46/80/10 49/81/10 47/71/10
f 19/24/10 56/82/10 44/74/10
f 45/76/10 57/83/10 46/80/10
f 58/84/45 59/85/45 50/86/45
f 55/87/53 60/88/54 61/89/55
f 54/90/56 61/89/57 62/91/58
f 56/92/8 63/93/8 64/94/8
f 57/95/59 58/96/60 50/69/61
f 52/97/62 51/70/63 60/88/64
f 18/98/8 62/91/8 63/93/8
f 53/99/65 64/94/66 58/96/67
f 59/100/10 65/101/10 66/102/10
f 51/103/42 67/104/42 60/105/42
f 62/106/3 68/107/3 63/108/68
f 64/109/1 69/110/1 58/84/69
f 50/111/70 70/112/70 51/103/71
f 60/113/6 71/114/6 61/115/72
f 61/115/39 66/116/39 62/117/39
f 63/108/36 65/118/36 64/119/36
f 72/120/10 73/121/10 74/122/10
f 20/123/46 75/124/46 76/125/46
f 77/126/73 73/127/73 78/128/73
f 79/129/74 78/130/74 72/131/74
f 74/132/75 80/133/75 81/134/75
f 79/135/8 80/136/8 77/137/8
f 76/125/76 13/15/77 16/138/78
f 20/25/79 82/139/79 34/42/79
f 83/140/80 23/28/80 25/31/80
f 84/141/47 25/142/47 27/33/47
f 85/143/81 27/33/81 86/144/81
f 87/145/48 86/146/48 30/37/48
f 88/147/82 30/37/82 32/40/82
f 82/139/49 32/148/49 34/42/49
f 16/138/70 14/149/70 15/150/70
f 16/21/83 82/139/84 76/151/85
f 11/16/86 75/124/87 83/140/88
f 9/10/89 83/152/89 84/141/90
f 7/11/91 84/141/92 85/143/93
f 87/145/94 7/8/95 85/153/96
f 2/6/97 87/145/98 88/147/99
f 3/3/100 88/154/100 82/139/101
f 1/1/1 4/155/1 2/2/1
f 4/4/2 6/7/102 5/5/2
f 6/7/3 8/156/3 7/8/3
f 8/9/5 10/12/103 9/10/5
f 10/12/6 12/157/6 11/13/6
f 12/14/7 14/149/104 13/15/7
f 6/19/8 4/158/8 1/159/8
f 1/159/8 15/160/8 6/19/8
f 15/160/8 14/17/8 6/19/8
f 14/17/8 12/161/8 10/18/8
f 10/18/8 8/162/8 6/19/8
f 15/20/9 1/1/105 3/3/9
f 17/22/10 54/78/10 18/23/10
f 20/25/11 34/42/106 21/26/12
f 23/28/14 20/123/107 22/29/15
f 25/31/17 23/28/108 24/30/18
f 27/33/20 25/142/109 26/34/21
f 29/36/23 86/144/110 27/33/24
f 30/37/25 86/146/111 29/38/26
f 32/40/28 30/37/112 31/39/29
f 34/42/31 32/148/113 33/43/32
f 21/26/34 33/43/34 35/44/35
f 33/41/36 31/39/36 37/46/36
f 31/39/37 29/38/37 38/48/38
f 29/36/39 28/35/39 39/49/39
f 28/35/40 26/34/40 40/51/41
f 26/32/42 24/30/42 41/52/42
f 24/30/43 22/29/43 42/54/44
f 22/27/45 21/26/45 36/45/45
f 42/55/45 36/45/45 43/56/45
f 41/52/44 42/54/44 17/58/46
f 40/53/42 41/52/42 19/59/42
f 39/49/41 40/51/41 44/61/47
f 38/50/39 39/49/39 45/62/39
f 37/46/38 38/48/38 46/64/48
f 35/47/36 37/46/36 47/65/36
f 36/45/35 35/44/35 48/67/49
f 49/68/50 57/95/114 50/69/51
f 47/71/10 49/81/10 52/72/10
f 44/74/10 56/82/10 53/75/10
f 43/77/10 55/79/10 54/78/10
f 48/73/10 52/72/10 55/79/10
f 46/80/10 57/83/10 49/81/10
f 19/24/10 18/23/10 56/82/10
f 45/76/10 53/75/10 57/83/10
f 58/84/45 69/110/45 59/85/45
f 55/87/115 52/97/116 60/88/117
f 54/90/56 55/87/118 61/89/57
f 56/92/8 18/98/8 63/93/8
f 57/95/59 53/99/119 58/96/60
f 52/97/62 49/68/120 51/70/63
f 18/98/121 54/90/122 62/91/123
f 53/99/8 56/92/8 64/94/8
f 66/102/10 71/163/10 67/164/10
f 67/164/10 70/165/10 59/100/10
f 59/100/10 69/166/10 65/101/10
f 65/101/10 68/167/10 66/102/10
f 66/102/10 67/164/10 59/100/10
f 51/103/42 70/112/42 67/104/42
f 62/106/3 66/168/68 68/107/3
f 64/109/1 65/169/69 69/110/1
f 50/111/70 59/170/71 70/112/70
f 60/113/6 67/171/72 71/114/6
f 61/115/39 71/114/39 66/116/39
f 63/108/36 68/107/36 65/118/36
f 72/120/10 78/172/10 73/121/10
f 20/123/46 23/28/46 75/124/46
f 77/126/73 80/173/73 73/127/73
f 79/129/74 77/174/74 78/130/74
f 74/132/75 73/175/75 80/133/75
f 79/135/8 81/176/8 80/136/8
f 76/125/76 75/124/124 13/15/77
f 20/25/79 76/151/79 82/139/79
f 83/140/80 75/124/80 23/28/80
f 84/141/47 83/152/47 25/142/47
f 85/143/81 84/141/81 27/33/81
f 87/145/48 85/153/48 86/146/48
f 88/147/82 87/145/82 30/37/82
f 82/139/49 88/154/49 32/148/49
f 16/138/70 13/15/125 14/149/70
f 16/21/83 3/3/126 82/139/84
f 11/16/86 13/15/127 75/124/87
f 9/10/89 11/13/128 83/152/89
f 7/11/91 9/10/129 84/141/92
f 87/145/94 5/5/96 7/8/95
f 2/6/97 5/5/130 87/145/98
f 3/3/100 2/2/131 88/154/100
