# Blender v3.3.1 OBJ File: 'state.blend'
# www.blender.org
o Cube_Cube.011
v -7.500000 -5.000000 7.500000
v -7.500000 5.000000 7.500000
v -7.500000 -5.000000 -7.500000
v -7.500000 5.000000 -7.500000
v 7.500000 -5.000000 7.500000
v 7.500000 5.000000 7.500000
v 7.500000 -5.000000 -7.500000
v 7.500000 5.000000 -7.500000
v -3.500000 4.999709 7.500000
v -3.500000 8.999708 7.500000
v -3.500000 8.999708 -7.500000
v 3.500000 4.999709 7.500000
v 3.500000 8.999708 7.500000
v 3.500000 4.999709 -7.500000
v 3.500000 8.999708 -7.500000
v -3.500000 8.999708 7.500000
v -3.500000 8.999708 -7.500000
v 3.500000 8.999708 -7.500000
v 3.500000 8.999708 7.500000
v 3.200284 9.000673 -7.505222
v 3.500283 9.000673 -7.505222
v 3.200284 9.000673 -7.805222
v 3.500283 9.000673 -7.805222
v 3.200283 4.700673 -7.505222
v 3.500283 4.700673 -7.505222
v 3.200283 4.700673 -7.805222
v 3.500283 4.700673 -7.805222
v 3.499572 4.700357 -7.501336
v 3.499572 5.000358 -7.501336
v 3.499572 4.700357 -7.801335
v 3.499572 5.000358 -7.801335
v 7.499572 4.700357 -7.501336
v 7.499572 5.000358 -7.501336
v 7.499572 4.700357 -7.801335
v 7.499572 5.000358 -7.801335
v -7.500265 -4.998616 -7.501336
v -7.500265 -4.698616 -7.501336
v -7.500265 -4.998616 -7.801335
v -7.500265 -4.698616 -7.801335
v 7.499736 -4.998616 -7.501336
v 7.499736 -4.698616 -7.501336
v 7.499736 -4.998616 -7.801335
v 7.499736 -4.698616 -7.801335
v 7.499959 4.700543 -7.501336
v 7.199959 4.700543 -7.501336
v 7.499959 4.700543 -7.801335
v 7.199959 4.700543 -7.801335
v 7.499958 -4.699455 -7.501336
v 7.199958 -4.699455 -7.501336
v 7.499958 -4.699455 -7.801335
v 7.199958 -4.699455 -7.801335
v -7.199897 4.701428 -7.501336
v -7.499897 4.701428 -7.501336
v -7.199897 4.701428 -7.801335
v -7.499897 4.701428 -7.801335
v -7.199898 -4.698572 -7.501336
v -7.499898 -4.698572 -7.501336
v -7.199898 -4.698572 -7.801335
v -7.499898 -4.698572 -7.801335
v -7.499732 4.700357 -7.501336
v -7.499732 5.000357 -7.501336
v -7.499732 4.700357 -7.801335
v -7.499732 5.000357 -7.801335
v -3.499733 4.700357 -7.501336
v -3.499733 5.000357 -7.501336
v -3.499733 4.700357 -7.801335
v -3.499733 5.000357 -7.801335
v -3.498448 9.000949 -7.501337
v -3.198447 9.000949 -7.501337
v -3.498448 9.000949 -7.801336
v -3.198447 9.000949 -7.801336
v -3.498448 4.700948 -7.501337
v -3.198447 4.700948 -7.501337
v -3.498448 4.700948 -7.801336
v -3.198447 4.700948 -7.801336
v -3.200001 8.700121 -7.505222
v -3.200001 9.000121 -7.505222
v -3.200001 8.700121 -7.805222
v -3.200001 9.000121 -7.805222
v 3.200000 8.700121 -7.505222
v 3.200000 9.000121 -7.505222
v 3.200000 8.700121 -7.805222
v 3.200000 9.000121 -7.805222
v -3.500000 8.414546 7.500000
v 3.500000 8.414546 -7.500000
v 3.500000 8.414546 7.500000
v -3.500000 4.999709 -3.825289
v -3.500000 8.999708 -3.825289
v 3.500000 4.999709 -3.825289
v 3.500000 8.999708 -3.825289
v -2.018294 8.999708 -3.825289
v 2.018294 8.999708 -3.825289
v -3.500000 4.999709 -3.825289
v 3.500000 8.999708 -3.825289
v 3.500000 8.999708 -3.825289
v -3.500000 8.999708 -3.825289
v 3.500000 4.999709 -3.825289
v -3.500000 8.999708 -3.825289
v -3.500000 8.999708 -5.662644
v 3.500000 4.999709 -5.662644
v -2.018294 8.999708 -5.662644
v -3.500000 4.999709 -5.662644
v 3.500000 8.999708 -5.662644
v 2.018294 8.999708 -5.662644
v -3.500000 4.999709 -2.476012
v 3.500000 8.999708 -2.476012
v 3.500000 8.999708 -2.476012
v -3.500000 8.999708 -2.476012
v 3.500000 4.999709 -2.476012
v -3.500000 8.999708 -2.476012
v -3.500000 4.999709 -0.713291
v 3.500000 8.999708 -0.713291
v 3.500000 8.999708 -0.713291
v -3.500000 8.999708 -0.713291
v 3.500000 4.999709 -0.713291
v -3.500000 8.999708 -0.713291
v -3.500000 4.999709 0.422986
v 3.500000 8.999708 0.422986
v 3.500000 8.999708 0.422986
v -3.500000 8.999708 0.422987
v 3.500000 4.999709 0.422987
v -3.500000 8.999708 0.422987
v -3.500000 4.999709 2.066504
v 3.500000 8.999708 2.066504
v 3.500000 8.999708 2.066504
v -3.500000 8.999708 2.066505
v 3.500000 4.999709 2.066505
v -3.500000 8.999708 2.066505
v 2.018294 8.572822 -5.662644
v 2.018294 8.572822 -3.825289
v -2.018294 8.572822 -3.825289
v -2.018294 8.572822 -5.662644
v -2.014412 8.999708 -0.713291
v -2.014412 8.999708 -2.476012
v 2.014412 8.999708 -2.476012
v 2.014412 8.999708 -0.713291
v -2.014412 8.708000 -0.713291
v -2.014412 8.708000 -2.476012
v 2.014412 8.708000 -2.476012
v 2.014412 8.708000 -0.713291
v -2.036705 8.999708 2.066505
v -2.036705 8.999708 0.422987
v 2.036705 8.999708 0.422986
v 2.036705 8.999708 2.066504
v -2.036705 8.708000 2.066505
v -2.036705 8.708000 0.422987
v 2.036705 8.708000 0.422986
v 2.036705 8.708000 2.066504
v 7.499768 -4.998785 -5.662937
v -7.499797 5.000270 -3.824538
v 7.499624 5.000314 -5.662937
v 7.499801 -4.998955 -3.824538
v -7.500000 -5.000000 -5.661765
v 7.499716 5.000237 -2.464122
v -7.499765 5.000314 -5.662937
v -7.500000 -5.000000 -2.463235
v 7.499677 5.000270 -3.824538
v -7.500000 -5.000000 -3.823530
v -7.499822 5.000237 -2.464122
v -3.499766 5.000277 -5.657318
v -7.499765 5.000313 -5.657318
v -3.499799 5.000197 -3.813300
v -7.499798 5.000269 -3.813300
v -3.499823 5.000140 -2.492584
v -7.499822 5.000237 -2.492584
v -3.499855 5.000062 -0.693919
v -7.499854 5.000195 -0.693919
v -3.499874 5.000014 0.430246
v -7.499875 5.000167 0.430246
v -3.499903 4.999944 2.059799
v -7.499904 5.000129 2.059799
v 7.499624 5.000314 -5.656510
v 3.499624 5.000278 -5.656510
v 3.499677 5.000198 -3.811689
v 7.499677 5.000269 -3.811689
v 3.499716 5.000139 -2.465613
v 7.499716 5.000237 -2.465613
v 3.499766 5.000064 -0.721176
v 7.499765 5.000196 -0.721176
v 3.499798 5.000015 0.400607
v 7.499797 5.000169 0.400607
v 3.499845 4.999944 2.050560
v 7.499845 5.000129 2.050560
v -6.622177 5.000269 -3.813300
v -6.622158 5.000313 -5.657318
v -4.377388 5.000277 -5.657318
v -4.377406 5.000197 -3.813300
v -6.622177 4.600005 -3.813300
v -6.622158 4.600049 -5.657318
v -4.377388 4.600013 -5.657318
v -4.377406 4.599933 -3.813300
v -6.640669 5.000195 -0.693919
v -6.640651 5.000237 -2.492584
v -4.359008 5.000140 -2.492584
v -4.359026 5.000062 -0.693919
v -6.640669 4.600036 -0.693919
v -6.640651 4.600079 -2.492584
v -4.359008 4.599982 -2.492584
v -4.359026 4.599904 -0.693919
v -6.691233 5.000129 2.059799
v -6.691216 5.000167 0.430246
v -4.308546 5.000014 0.430246
v -4.308563 4.999944 2.059799
v -6.691233 4.600066 2.059799
v -6.691216 4.600104 0.430246
v -4.308546 4.599951 0.430246
v -4.308563 4.599881 2.059799
v 6.708177 5.000269 -3.811689
v 6.708145 5.000314 -5.656510
v 4.291126 5.000278 -5.656510
v 4.291158 5.000198 -3.811689
v 6.708177 4.600005 -3.811689
v 6.708145 4.600049 -5.656510
v 4.291126 4.600013 -5.656510
v 4.291158 4.599933 -3.811689
v 6.730824 5.000196 -0.721176
v 6.730794 5.000237 -2.465613
v 4.268657 5.000139 -2.465613
v 4.268688 5.000064 -0.721176
v 6.730824 4.600037 -0.721179
v 6.730794 4.600078 -2.465616
v 4.268657 4.599980 -2.465616
v 4.268688 4.599905 -0.721179
v 6.741814 5.000129 2.050560
v 6.741785 5.000169 0.400607
v 4.257828 5.000015 0.400607
v 4.257857 4.999944 2.050560
v 6.741814 4.600065 2.050560
v 6.741785 4.600104 0.400607
v 4.257828 4.599951 0.400607
v 4.257857 4.599880 2.050560
v 7.499825 -4.999081 -2.464122
v 7.499765 5.000196 -0.729627
v -7.500000 -5.000000 -0.728894
v -7.499853 5.000196 -0.729627
v 7.499855 -4.999241 -0.729627
v 7.499796 5.000169 0.372555
v -7.500000 -5.000000 0.373190
v -7.499873 5.000170 0.372555
v 7.499875 -4.999343 0.372555
v 7.499844 5.000131 2.025829
v -7.500000 -5.000000 2.026316
v -7.499902 5.000131 2.025829
v 7.499904 -4.999495 2.025828
v 7.499904 -3.717837 2.025828
v 7.499875 -3.717724 0.372555
v 7.499796 3.718527 0.372555
v 7.499844 3.718498 2.025829
v 6.899907 -3.718203 2.025828
v 6.899878 -3.718090 0.372555
v 6.899800 3.718161 0.372555
v 6.899847 3.718132 2.025829
v 7.499855 -3.718421 -0.729627
v 7.499825 -3.718302 -2.464122
v 7.499716 3.719432 -2.464122
v 7.499765 3.719401 -0.729627
v 6.899855 -3.718421 -0.729627
v 6.899825 -3.718302 -2.464122
v 6.899715 3.719432 -2.464122
v 6.899765 3.719401 -0.729627
v 7.499801 -3.732381 -3.824538
v 7.499677 3.733723 -3.824538
v 7.499624 3.733756 -5.662937
v 7.499768 -3.732255 -5.662937
v 6.899798 -3.732381 -3.824538
v 6.899674 3.733723 -3.824538
v 6.899621 3.733756 -5.662937
v 6.899766 -3.732255 -5.662937
v -7.499765 3.577460 -5.662937
v -7.500000 -3.577153 -5.661765
v -7.499797 3.577429 -3.824538
v -7.500000 -3.577153 -3.823530
v -6.899762 3.577460 -5.662937
v -6.899997 -3.577153 -5.661765
v -6.899795 3.577429 -3.824538
v -6.899997 -3.577153 -3.823530
v -7.499822 3.645222 -2.464122
v -7.500000 -3.644991 -2.463235
v -7.500000 -3.644991 -0.728894
v -7.499853 3.645192 -0.729627
v -6.899821 3.645222 -2.464122
v -6.899999 -3.644991 -2.463235
v -6.899999 -3.644991 -0.728894
v -6.899852 3.645192 -0.729627
v -7.499873 3.645049 0.372555
v -7.500000 -3.644885 0.373190
v -7.500000 -3.644885 2.026316
v -7.499902 3.645021 2.025829
v -6.899869 3.645049 0.372555
v -6.899997 -3.644885 0.373190
v -6.899997 -3.644885 2.026316
v -6.899899 3.645021 2.025829
v -3.500000 8.999708 6.188650
v -0.480018 8.999708 6.188650
v -0.480018 8.999708 7.500000
v 3.500000 8.999708 6.188650
v 0.480018 8.999708 7.500000
v -3.500000 8.999708 6.188650
v 0.480018 8.778122 6.188650
v 0.480018 8.778122 7.500000
v 3.500000 8.999708 6.188650
v -0.480018 8.778122 7.500000
v 0.480018 8.999708 6.188650
v -0.480018 8.778122 6.188650
vn 0.0000 0.0000 1.0000
vn 0.0000 1.0000 0.0000
vn 0.0000 0.0000 -1.0000
vn -1.0000 0.0000 0.0000
vn 1.0000 0.0000 0.0000
vn 0.0000 -1.0000 0.0000
vn 0.0243 0.0000 -0.9997
vn 0.0001 1.0000 0.0000
vn 0.0000 -0.0018 -1.0000
vn 0.0000 -0.0013 1.0000
vn 0.0000 -0.0013 -1.0000
vn 0.0000 -0.0026 -1.0000
vn -0.0001 1.0000 0.0000
vn 0.0274 0.0000 -0.9996
vn 0.9806 0.0000 0.1963
vn 0.0000 -1.0000 -0.0001
vn 0.0006 -1.0000 -0.0000
vn -0.0006 1.0000 0.0001
vn 0.0000 1.0000 0.0001
vn 0.0000 -0.0001 -1.0000
vn 0.9804 0.0000 0.1972
vn 0.9803 0.0000 0.1976
vn 0.0000 0.0002 1.0000
vn 0.9805 0.0000 0.1965
vn 0.0000 0.0001 1.0000
vn 0.9805 0.0000 0.1968
vn 0.0000 -0.0010 -1.0000
vn -1.0000 0.0001 -0.0000
vn 1.0000 0.0001 0.0000
vn -0.0364 0.0000 0.9993
vn 0.0000 0.0018 1.0000
vn 0.0000 0.0014 -1.0000
vn 0.0000 0.0014 1.0000
vn 0.0000 0.0026 1.0000
vn -0.0171 0.0000 0.9999
vn -0.9806 0.0000 -0.1958
vn 0.0077 0.0000 1.0000
vn 0.0433 0.0000 0.9991
vn -0.0125 0.0000 0.9999
vn -0.0052 0.0000 1.0000
vn -0.9804 0.0000 -0.1969
vn -0.9802 0.0000 -0.1981
vn -0.9804 0.0000 -0.1970
vn -0.9805 0.0000 -0.1967
vn -0.9805 0.0000 -0.1968
vn -0.0006 -0.0000 -1.0000
s off
f 6//1 1//1 5//1
f 15//1 11//1 18//1
f 296//1 294//1 303//1
f 293//1 16//1 298//1
f 294//1 299//1 303//1
f 21//2 22//2 20//2
f 22//3 27//3 26//3
f 26//4 20//4 22//4
f 23//5 25//5 27//5
f 25//6 26//6 27//6
f 29//4 30//4 28//4
f 31//3 34//3 30//3
f 35//5 32//5 34//5
f 34//6 28//6 30//6
f 31//2 33//2 35//2
f 37//4 38//4 36//4
f 39//3 42//3 38//3
f 43//5 40//5 42//5
f 42//6 36//6 38//6
f 39//2 41//2 43//2
f 47//1 50//1 46//1
f 50//4 44//4 46//4
f 47//5 49//5 51//5
f 55//1 58//1 54//1
f 58//4 52//4 54//4
f 55//5 57//5 59//5
f 61//4 62//4 60//4
f 63//3 66//3 62//3
f 66//6 60//6 62//6
f 63//2 65//2 67//2
f 69//2 70//2 68//2
f 71//3 74//3 70//3
f 74//4 68//4 70//4
f 71//5 73//5 75//5
f 73//6 74//6 75//6
f 79//3 82//3 78//3
f 82//6 76//6 78//6
f 79//2 81//2 83//2
f 88//2 101//2 99//2
f 94//1 92//1 95//1
f 104//4 130//4 92//4
f 19//4 14//4 12//4
f 106//1 95//1 107//1
f 88//1 98//1 91//1
f 16//1 297//1 295//1
f 103//2 92//2 90//2
f 112//1 107//1 113//1
f 96//1 110//1 98//1
f 118//1 113//1 119//1
f 108//1 116//1 110//1
f 116//2 134//2 110//2
f 124//1 119//1 125//1
f 114//1 122//1 116//1
f 9//5 17//5 16//5
f 301//1 125//1 296//1
f 120//1 128//1 122//1
f 128//2 142//2 122//2
f 91//5 132//5 101//5
f 11//1 17//1 18//1
f 12//3 84//3 86//3
f 107//2 136//2 113//2
f 129//1 101//1 132//1
f 148//3 141//3 144//3
f 135//4 140//4 136//4
f 133//5 138//5 134//5
f 13//1 296//1 19//1
f 119//2 144//2 125//2
f 130//2 132//2 131//2
f 137//2 139//2 138//2
f 143//4 148//4 144//4
f 141//5 146//5 142//5
f 56//1 45//1 52//1
f 160//2 61//2 161//2
f 159//4 158//4 156//4
f 157//7 261//7 262//7
f 151//5 40//5 33//5
f 155//4 3//4 153//4
f 158//4 270//4 153//4
f 173//2 33//2 29//2
f 163//1 187//1 184//1
f 164//2 163//2 165//2
f 166//2 194//2 195//2
f 168//2 167//2 169//2
f 168//1 201//1 202//1
f 9//8 171//8 2//8
f 172//3 210//3 209//3
f 176//2 175//2 174//2
f 178//9 216//9 219//9
f 180//2 179//2 178//2
f 181//2 224//2 183//2
f 12//2 183//2 182//2
f 187//4 190//4 191//4
f 162//2 186//2 187//2
f 161//2 184//2 185//2
f 160//1 185//1 186//1
f 191//2 189//2 188//2
f 184//5 189//5 185//5
f 187//3 188//3 184//3
f 186//1 189//1 190//1
f 195//4 198//4 199//4
f 165//2 192//2 193//2
f 164//1 193//1 194//1
f 167//10 195//10 192//10
f 199//8 197//8 196//8
f 192//5 197//5 193//5
f 195//3 196//3 192//3
f 194//1 197//1 198//1
f 203//3 204//3 200//3
f 171//1 203//1 200//1
f 170//2 202//2 203//2
f 169//2 200//2 201//2
f 207//8 205//8 204//8
f 202//1 205//1 206//1
f 203//4 206//4 207//4
f 200//5 205//5 201//5
f 208//4 213//4 212//4
f 172//2 208//2 175//2
f 174//3 208//3 211//3
f 174//2 210//2 173//2
f 215//2 213//2 214//2
f 211//3 212//3 215//3
f 210//1 213//1 209//1
f 211//5 214//5 210//5
f 219//5 222//5 218//5
f 178//2 218//2 176//2
f 177//2 216//2 179//2
f 177//3 218//3 217//3
f 223//2 221//2 222//2
f 216//4 221//4 220//4
f 219//3 220//3 223//3
f 218//1 221//1 217//1
f 226//1 229//1 225//1
f 181//11 226//11 225//11
f 182//12 224//12 227//12
f 182//2 226//2 180//2
f 231//13 229//13 230//13
f 227//5 230//5 226//5
f 224//4 229//4 228//4
f 227//3 228//3 231//3
f 154//5 152//5 157//5
f 232//14 255//14 254//14
f 234//4 278//4 156//4
f 239//4 234//4 238//4
f 237//5 236//5 233//5
f 241//5 247//5 237//5
f 242//15 288//15 287//15
f 2//4 242//4 1//4
f 1//16 40//16 5//16
f 6//5 244//5 241//5
f 247//17 252//17 251//17
f 240//5 245//5 244//5
f 240//3 247//3 246//3
f 241//3 245//3 248//3
f 252//5 250//5 251//5
f 246//18 249//18 245//18
f 245//3 252//3 248//3
f 246//1 251//1 250//1
f 256//3 257//3 260//3
f 233//3 253//3 256//3
f 233//5 255//5 154//5
f 232//5 253//5 236//5
f 260//5 258//5 259//5
f 255//1 258//1 254//1
f 255//6 260//6 259//6
f 254//19 257//19 253//19
f 263//1 268//1 264//1
f 149//3 263//3 264//3
f 149//5 261//5 152//5
f 157//5 263//5 151//5
f 266//5 268//5 267//5
f 263//6 266//6 267//6
f 264//19 265//19 261//19
f 262//3 265//3 266//3
f 271//20 276//20 272//20
f 155//21 270//21 269//21
f 158//22 271//22 272//22
f 150//4 269//4 271//4
f 275//4 274//4 276//4
f 269//23 274//23 273//23
f 272//2 274//2 270//2
f 269//6 275//6 271//6
f 277//6 284//6 280//6
f 159//21 278//21 277//21
f 234//24 280//24 279//24
f 235//4 277//4 280//4
f 284//4 282//4 283//4
f 277//25 282//25 281//25
f 280//20 283//20 279//20
f 279//2 282//2 278//2
f 288//20 291//20 287//20
f 243//4 285//4 288//4
f 242//4 286//4 238//4
f 239//26 286//26 285//26
f 292//4 290//4 291//4
f 287//2 290//2 286//2
f 285//6 292//6 288//6
f 285//25 290//25 289//25
f 80//27 73//27 76//27
f 146//2 148//2 147//2
f 126//1 298//1 128//1
f 296//2 297//2 19//2
f 140//3 133//3 136//3
f 91//3 130//3 131//3
f 119//2 116//2 122//2
f 16//2 294//2 298//2
f 295//5 304//5 294//5
f 84//3 19//3 86//3
f 304//2 300//2 299//2
f 98//2 107//2 95//2
f 17//2 103//2 18//2
f 143//1 146//1 147//1
f 128//2 296//2 125//2
f 303//4 300//4 297//4
f 135//1 138//1 139//1
f 297//3 302//3 295//3
f 6//1 2//1 1//1
f 296//1 298//1 294//1
f 293//1 10//1 16//1
f 294//1 304//1 299//1
f 21//2 23//2 22//2
f 22//3 23//3 27//3
f 26//4 24//4 20//4
f 23//5 21//5 25//5
f 25//6 24//6 26//6
f 29//4 31//4 30//4
f 31//3 35//3 34//3
f 35//5 33//5 32//5
f 34//6 32//6 28//6
f 31//2 29//2 33//2
f 37//4 39//4 38//4
f 39//3 43//3 42//3
f 43//5 41//5 40//5
f 42//6 40//6 36//6
f 39//2 37//2 41//2
f 47//1 51//1 50//1
f 50//4 48//4 44//4
f 47//5 45//5 49//5
f 55//1 59//1 58//1
f 58//4 56//4 52//4
f 55//5 53//5 57//5
f 61//4 63//4 62//4
f 63//3 67//3 66//3
f 66//6 64//6 60//6
f 63//2 61//2 65//2
f 69//2 71//2 70//2
f 71//3 75//3 74//3
f 74//4 72//4 68//4
f 71//5 69//5 73//5
f 73//6 72//6 74//6
f 79//3 83//3 82//3
f 82//6 80//6 76//6
f 79//2 77//2 81//2
f 88//2 91//2 101//2
f 94//1 90//1 92//1
f 104//4 129//4 130//4
f 19//28 21//28 14//28
f 106//1 94//1 95//1
f 88//1 96//1 98//1
f 16//3 19//3 297//3
f 103//2 104//2 92//2
f 112//1 106//1 107//1
f 96//1 108//1 110//1
f 118//1 112//1 113//1
f 108//1 114//1 116//1
f 116//2 133//2 134//2
f 124//1 118//1 119//1
f 114//1 120//1 122//1
f 9//29 65//29 17//29
f 301//1 124//1 125//1
f 120//1 126//1 128//1
f 128//2 141//2 142//2
f 91//5 131//5 132//5
f 12//3 9//3 84//3
f 107//2 135//2 136//2
f 129//1 104//1 101//1
f 148//3 145//3 141//3
f 135//4 139//4 140//4
f 133//5 137//5 138//5
f 13//1 301//1 296//1
f 119//2 143//2 144//2
f 130//2 129//2 132//2
f 137//2 140//2 139//2
f 143//4 147//4 148//4
f 141//5 145//5 146//5
f 56//1 49//1 45//1
f 160//2 65//2 61//2
f 159//4 150//4 158//4
f 157//30 152//30 261//30
f 151//5 149//5 40//5
f 155//4 61//4 3//4
f 158//4 272//4 270//4
f 173//2 172//2 33//2
f 163//3 162//3 187//3
f 164//2 162//2 163//2
f 166//2 164//2 194//2
f 168//2 166//2 167//2
f 168//3 169//3 201//3
f 9//2 170//2 171//2
f 172//1 173//1 210//1
f 176//2 177//2 175//2
f 178//31 179//31 216//31
f 180//2 181//2 179//2
f 181//2 225//2 224//2
f 12//13 6//13 183//13
f 187//4 186//4 190//4
f 162//2 160//2 186//2
f 161//2 163//2 184//2
f 160//3 161//3 185//3
f 191//2 190//2 189//2
f 184//5 188//5 189//5
f 187//3 191//3 188//3
f 186//1 185//1 189//1
f 195//4 194//4 198//4
f 165//2 167//2 192//2
f 164//3 165//3 193//3
f 167//32 166//32 195//32
f 199//2 198//2 197//2
f 192//5 196//5 197//5
f 195//3 199//3 196//3
f 194//1 193//1 197//1
f 203//3 207//3 204//3
f 171//3 170//3 203//3
f 170//2 168//2 202//2
f 169//2 171//2 200//2
f 207//8 206//8 205//8
f 202//1 201//1 205//1
f 203//4 202//4 206//4
f 200//5 204//5 205//5
f 208//4 209//4 213//4
f 172//2 209//2 208//2
f 174//1 175//1 208//1
f 174//2 211//2 210//2
f 215//2 212//2 213//2
f 211//3 208//3 212//3
f 210//1 214//1 213//1
f 211//5 215//5 214//5
f 219//5 223//5 222//5
f 178//2 219//2 218//2
f 177//2 217//2 216//2
f 177//1 176//1 218//1
f 223//13 220//13 221//13
f 216//4 217//4 221//4
f 219//3 216//3 220//3
f 218//1 222//1 221//1
f 226//1 230//1 229//1
f 181//33 180//33 226//33
f 182//34 183//34 224//34
f 182//2 227//2 226//2
f 231//13 228//13 229//13
f 227//5 231//5 230//5
f 224//4 225//4 229//4
f 227//3 224//3 228//3
f 154//5 232//5 152//5
f 232//35 154//35 255//35
f 234//4 279//4 278//4
f 239//4 235//4 234//4
f 237//5 240//5 236//5
f 241//5 248//5 247//5
f 242//36 243//36 288//36
f 2//4 243//4 242//4
f 1//16 36//16 40//16
f 6//5 5//5 244//5
f 247//17 248//17 252//17
f 240//5 246//5 245//5
f 240//37 237//37 247//37
f 241//38 244//38 245//38
f 252//5 249//5 250//5
f 246//18 250//18 249//18
f 245//3 249//3 252//3
f 246//1 247//1 251//1
f 256//3 253//3 257//3
f 233//39 236//39 253//39
f 233//5 256//5 255//5
f 232//5 254//5 253//5
f 260//5 257//5 258//5
f 255//1 259//1 258//1
f 255//6 256//6 260//6
f 254//19 258//19 257//19
f 263//1 267//1 268//1
f 149//40 151//40 263//40
f 149//5 264//5 261//5
f 157//5 262//5 263//5
f 266//5 265//5 268//5
f 263//6 262//6 266//6
f 264//19 268//19 265//19
f 262//3 261//3 265//3
f 271//20 275//20 276//20
f 155//41 153//41 270//41
f 158//42 150//42 271//42
f 150//4 155//4 269//4
f 275//4 273//4 274//4
f 269//23 270//23 274//23
f 272//2 276//2 274//2
f 269//6 273//6 275//6
f 277//6 281//6 284//6
f 159//43 156//43 278//43
f 234//44 235//44 280//44
f 235//4 159//4 277//4
f 284//4 281//4 282//4
f 277//25 278//25 282//25
f 280//20 284//20 283//20
f 279//2 283//2 282//2
f 288//20 292//20 291//20
f 243//4 239//4 285//4
f 242//4 287//4 286//4
f 239//45 238//45 286//45
f 292//4 289//4 290//4
f 287//2 291//2 290//2
f 285//6 289//6 292//6
f 285//25 286//25 290//25
f 80//46 24//46 73//46
f 146//2 145//2 148//2
f 126//1 293//1 298//1
f 296//2 303//2 297//2
f 140//3 137//3 133//3
f 91//3 92//3 130//3
f 119//2 113//2 116//2
f 16//2 295//2 294//2
f 295//5 302//5 304//5
f 84//3 16//3 19//3
f 304//2 302//2 300//2
f 98//2 110//2 107//2
f 17//2 99//2 103//2
f 143//1 142//1 146//1
f 128//2 298//2 296//2
f 303//4 299//4 300//4
f 135//1 134//1 138//1
f 297//3 300//3 302//3
l 4 3
l 7 3
l 8 7
l 84 10
l 99 11
l 85 14
l 15 85
l 13 86
l 97 89
l 87 93
l 15 103
l 115 109
l 121 115
l 127 121
l 12 127
l 33 7
l 7 36
l 36 4
l 9 123
l 117 123
l 111 117
l 105 111
l 93 105
l 93 102
l 65 102
l 97 109
l 97 100
l 29 85
l 29 100
l 3 40
l 8 6
l 2 4
