# Blender v3.3.1 OBJ File: 'placa.blend'
# www.blender.org
mtllib placa.mtl
o Cylinder
v 0.100000 0.000000 2.500000
v 0.100000 0.000000 -2.500000
v 0.098078 0.019509 2.500000
v 0.098079 0.019509 -2.500000
v 0.092388 0.038268 2.500000
v 0.092388 0.038268 -2.500000
v 0.083147 0.055557 2.500000
v 0.083147 0.055557 -2.500000
v 0.070711 0.070711 2.500000
v 0.070711 0.070711 -2.500000
v 0.055557 0.083147 2.500000
v 0.055557 0.083147 -2.500000
v 0.038268 0.092388 2.500000
v 0.038268 0.092388 -2.500000
v 0.019509 0.098079 2.500000
v 0.019509 0.098079 -2.500000
v -0.000000 0.100000 2.500000
v 0.000000 0.100000 -2.500000
v -0.019509 0.098079 2.500000
v -0.019509 0.098079 -2.500000
v -0.038268 0.092388 2.500000
v -0.038268 0.092388 -2.500000
v -0.055557 0.083147 2.500000
v -0.055557 0.083147 -2.500000
v -0.070711 0.070711 2.500000
v -0.070711 0.070711 -2.500000
v -0.083147 0.055557 2.500000
v -0.083147 0.055557 -2.500000
v -0.092388 0.038268 2.500000
v -0.092388 0.038268 -2.500000
v -0.098079 0.019509 2.500000
v -0.098078 0.019509 -2.500000
v -0.100000 -0.000000 2.500000
v -0.100000 -0.000000 -2.500000
v -0.098079 -0.019509 2.500000
v -0.098078 -0.019509 -2.500000
v -0.092388 -0.038268 2.500000
v -0.092388 -0.038268 -2.500000
v -0.083147 -0.055557 2.500000
v -0.083147 -0.055557 -2.500000
v -0.070711 -0.070711 2.500000
v -0.070711 -0.070711 -2.500000
v -0.055557 -0.083147 2.500000
v -0.055557 -0.083147 -2.500000
v -0.038268 -0.092388 2.500000
v -0.038268 -0.092388 -2.500000
v -0.019509 -0.098079 2.500000
v -0.019509 -0.098079 -2.500000
v -0.000000 -0.100000 2.500000
v 0.000000 -0.100000 -2.500000
v 0.019509 -0.098079 2.500000
v 0.019509 -0.098079 -2.500000
v 0.038268 -0.092388 2.500000
v 0.038268 -0.092388 -2.500000
v 0.055557 -0.083147 2.500000
v 0.055557 -0.083147 -2.500000
v 0.070711 -0.070711 2.500000
v 0.070711 -0.070711 -2.500000
v 0.083147 -0.055557 2.500000
v 0.083147 -0.055557 -2.500000
v 0.092388 -0.038268 2.500000
v 0.092388 -0.038268 -2.500000
v 0.098078 -0.019509 2.500000
v 0.098079 -0.019509 -2.500000
v 0.004344 0.139589 -1.244496
v -1.193534 0.139589 -2.450767
v 1.210615 0.139589 -2.442374
v 0.012736 0.139589 -3.648645
vt 0.571692 0.339115
vt 0.539729 0.013018
vt 0.571692 0.013018
vt 0.539729 0.339115
vt 0.508380 0.013018
vt 0.508380 0.339115
vt 0.478850 0.013018
vt 0.478850 0.339115
vt 0.452274 0.013018
vt 0.452274 0.339115
vt 0.429673 0.013018
vt 0.889733 0.665212
vt 0.863156 0.339115
vt 0.889733 0.339115
vt 0.863156 0.665212
vt 0.833626 0.339115
vt 0.833626 0.665212
vt 0.802277 0.339115
vt 0.802277 0.665212
vt 0.770314 0.339115
vt 0.770314 0.665212
vt 0.738965 0.339115
vt 0.738965 0.665212
vt 0.709435 0.339115
vt 0.709435 0.665212
vt 0.682859 0.339115
vt 0.682859 0.665212
vt 0.660258 0.339115
vt 0.888623 0.339115
vt 0.862046 0.013018
vt 0.888623 0.013018
vt 0.862046 0.339115
vt 0.832516 0.013018
vt 0.832516 0.339115
vt 0.801167 0.013018
vt 0.801167 0.339115
vt 0.769204 0.013018
vt 0.769204 0.339115
vt 0.737855 0.013018
vt 0.737855 0.339115
vt 0.708325 0.013018
vt 0.708325 0.339115
vt 0.681749 0.013018
vt 0.660258 0.665211
vt 0.635550 0.339115
vt 0.660258 0.339115
vt 0.635550 0.665211
vt 0.607361 0.339115
vt 0.607361 0.665211
vt 0.576774 0.339115
vt 0.576774 0.665211
vt 0.544965 0.339115
vt 0.544965 0.665211
vt 0.513156 0.339115
vt 0.513156 0.665211
vt 0.482569 0.339115
vt 0.482569 0.665211
vt 0.454381 0.339115
vt 0.454381 0.665211
vt 0.429673 0.339115
vt 0.681749 0.339115
vt 0.659148 0.013018
vt 0.681749 0.013018
vt 0.659148 0.339115
vt 0.632571 0.013018
vt 0.423437 0.127951
vt 0.314740 0.331309
vt 0.111382 0.222612
vt 0.632571 0.339115
vt 0.603041 0.013018
vt 0.603041 0.339115
vt 0.429673 0.483826
vt 0.283391 0.662071
vt 0.105147 0.515789
vt 0.194350 0.817563
vt 0.540824 0.815250
vt 0.361946 0.986399
vt 0.429673 0.339115
vt 0.660258 0.665211
vt 0.681749 0.339115
vt 0.429673 0.665211
vt 0.105147 0.191263
vt 0.105147 0.159300
vt 0.111382 0.127951
vt 0.123614 0.098421
vt 0.141372 0.071845
vt 0.163973 0.049243
vt 0.190549 0.031486
vt 0.220079 0.019254
vt 0.251428 0.013018
vt 0.283391 0.013018
vt 0.314740 0.019254
vt 0.344270 0.031486
vt 0.370847 0.049243
vt 0.393448 0.071845
vt 0.411206 0.098421
vt 0.429673 0.159300
vt 0.411206 0.252142
vt 0.429673 0.191263
vt 0.423437 0.222612
vt 0.393448 0.278718
vt 0.370847 0.301319
vt 0.344270 0.319077
vt 0.283391 0.337545
vt 0.190549 0.319077
vt 0.251428 0.337545
vt 0.220079 0.331309
vt 0.163973 0.301319
vt 0.141372 0.278718
vt 0.123614 0.252142
vt 0.105147 0.483826
vt 0.111382 0.452477
vt 0.123614 0.422947
vt 0.141372 0.396371
vt 0.163973 0.373770
vt 0.190549 0.356012
vt 0.220079 0.343780
vt 0.251428 0.337545
vt 0.283391 0.337545
vt 0.314740 0.343780
vt 0.344270 0.356012
vt 0.370847 0.373770
vt 0.393448 0.396371
vt 0.411206 0.422947
vt 0.423437 0.452477
vt 0.429673 0.515789
vt 0.423437 0.547138
vt 0.411206 0.576668
vt 0.393448 0.603244
vt 0.370847 0.625846
vt 0.344270 0.643603
vt 0.314740 0.655835
vt 0.251428 0.662071
vt 0.220079 0.655835
vt 0.190549 0.643603
vt 0.163973 0.625846
vt 0.141372 0.603244
vt 0.123614 0.576668
vt 0.111382 0.547138
vt 0.373229 0.646413
vn 0.9952 0.0980 0.0000
vn 0.9569 0.2903 0.0000
vn 0.8819 0.4714 0.0000
vn 0.7730 0.6344 0.0000
vn 0.6344 0.7730 0.0000
vn 0.4714 0.8819 0.0000
vn 0.2903 0.9569 0.0000
vn 0.0980 0.9952 0.0000
vn -0.0980 0.9952 -0.0000
vn -0.2903 0.9569 -0.0000
vn -0.4714 0.8819 -0.0000
vn -0.6344 0.7730 -0.0000
vn -0.7730 0.6344 -0.0000
vn -0.8819 0.4714 -0.0000
vn -0.9569 0.2903 -0.0000
vn -0.9952 0.0980 -0.0000
vn -0.9952 -0.0980 -0.0000
vn -0.9569 -0.2903 -0.0000
vn -0.8819 -0.4714 -0.0000
vn -0.7730 -0.6344 -0.0000
vn -0.6344 -0.7730 -0.0000
vn -0.4714 -0.8819 -0.0000
vn -0.2903 -0.9569 -0.0000
vn -0.0980 -0.9952 -0.0000
vn 0.0980 -0.9952 0.0000
vn 0.2903 -0.9569 0.0000
vn 0.4714 -0.8819 0.0000
vn 0.6344 -0.7730 0.0000
vn 0.7730 -0.6344 0.0000
vn 0.8819 -0.4714 0.0000
vn 0.0000 0.0000 -1.0000
vn 0.9569 -0.2903 0.0000
vn 0.9952 -0.0980 0.0000
vn -0.0000 0.0000 1.0000
vn 0.0000 -1.0000 -0.0000
vn -0.0001 0.0000 -1.0000
vn 0.0001 0.0000 -1.0000
vn 0.0001 0.0000 1.0000
vn -0.0001 0.0000 1.0000
usemtl Material
s off
f 2/1/1 3/2/1 1/3/1
f 4/4/2 5/5/2 3/2/2
f 6/6/3 7/7/3 5/5/3
f 8/8/4 9/9/4 7/7/4
f 10/10/5 11/11/5 9/9/5
f 12/12/6 13/13/6 11/14/6
f 14/15/7 15/16/7 13/13/7
f 16/17/8 17/18/8 15/16/8
f 18/19/9 19/20/9 17/18/9
f 20/21/10 21/22/10 19/20/10
f 22/23/11 23/24/11 21/22/11
f 24/25/12 25/26/12 23/24/12
f 26/27/13 27/28/13 25/26/13
f 28/29/14 29/30/14 27/31/14
f 30/32/15 31/33/15 29/30/15
f 32/34/16 33/35/16 31/33/16
f 34/36/17 35/37/17 33/35/17
f 36/38/18 37/39/18 35/37/18
f 38/40/19 39/41/19 37/39/19
f 40/42/20 41/43/20 39/41/20
f 42/44/21 43/45/21 41/46/21
f 44/47/22 45/48/22 43/45/22
f 46/49/23 47/50/23 45/48/23
f 48/51/24 49/52/24 47/50/24
f 50/53/25 51/54/25 49/52/25
f 52/55/26 53/56/26 51/54/26
f 54/57/27 55/58/27 53/56/27
f 56/59/28 57/60/28 55/58/28
f 58/61/29 59/62/29 57/63/29
f 60/64/30 61/65/30 59/62/30
f 38/66/31 22/67/31 6/68/31
f 62/69/32 63/70/32 61/65/32
f 64/71/33 1/3/33 63/70/33
f 31/72/34 47/73/34 63/74/34
f 65/75/35 68/76/35 67/77/35
f 2/1/1 4/4/1 3/2/1
f 4/4/2 6/6/2 5/5/2
f 6/6/3 8/8/3 7/7/3
f 8/8/4 10/10/4 9/9/4
f 10/10/5 12/78/5 11/11/5
f 12/12/6 14/15/6 13/13/6
f 14/15/7 16/17/7 15/16/7
f 16/17/8 18/19/8 17/18/8
f 18/19/9 20/21/9 19/20/9
f 20/21/10 22/23/10 21/22/10
f 22/23/11 24/25/11 23/24/11
f 24/25/12 26/27/12 25/26/12
f 26/27/13 28/79/13 27/28/13
f 28/29/14 30/32/14 29/30/14
f 30/32/15 32/34/15 31/33/15
f 32/34/16 34/36/16 33/35/16
f 34/36/17 36/38/17 35/37/17
f 36/38/18 38/40/18 37/39/18
f 38/40/19 40/42/19 39/41/19
f 40/42/20 42/80/20 41/43/20
f 42/44/21 44/47/21 43/45/21
f 44/47/22 46/49/22 45/48/22
f 46/49/23 48/51/23 47/50/23
f 48/51/24 50/53/24 49/52/24
f 50/53/25 52/55/25 51/54/25
f 52/55/26 54/57/26 53/56/26
f 54/57/27 56/59/27 55/58/27
f 56/59/28 58/81/28 57/60/28
f 58/61/29 60/64/29 59/62/29
f 60/64/30 62/69/30 61/65/30
f 6/68/31 4/82/31 2/83/31
f 2/83/31 64/84/31 6/68/31
f 64/84/31 62/85/31 6/68/31
f 62/85/36 60/86/36 58/87/36
f 58/87/31 56/88/31 54/89/31
f 54/89/31 52/90/31 50/91/31
f 50/91/31 48/92/31 54/89/31
f 48/92/31 46/93/31 54/89/31
f 46/93/31 44/94/31 42/95/31
f 42/95/31 40/96/31 38/66/31
f 38/66/31 36/97/31 30/98/31
f 36/97/36 34/99/36 30/98/36
f 34/99/31 32/100/31 30/98/31
f 30/98/37 28/101/37 26/102/37
f 26/102/31 24/103/31 22/67/31
f 22/67/31 20/104/31 14/105/31
f 20/104/31 18/106/31 14/105/31
f 18/106/31 16/107/31 14/105/31
f 14/105/31 12/108/31 10/109/31
f 10/109/31 8/110/31 6/68/31
f 62/85/31 58/87/31 6/68/31
f 58/87/31 54/89/31 6/68/31
f 46/93/31 42/95/31 54/89/31
f 42/95/31 38/66/31 54/89/31
f 30/98/31 26/102/31 38/66/31
f 26/102/31 22/67/31 38/66/31
f 14/105/31 10/109/31 22/67/31
f 10/109/31 6/68/31 22/67/31
f 6/68/31 54/89/31 38/66/31
f 62/69/32 64/71/32 63/70/32
f 64/71/33 2/1/33 1/3/33
f 63/74/34 1/111/34 3/112/34
f 3/112/38 5/113/38 7/114/38
f 7/114/34 9/115/34 11/116/34
f 11/116/34 13/117/34 15/118/34
f 15/118/34 17/119/34 19/120/34
f 19/120/34 21/121/34 23/122/34
f 23/122/39 25/123/39 27/124/39
f 27/124/39 29/125/39 31/72/39
f 31/72/34 33/126/34 35/127/34
f 35/127/39 37/128/39 39/129/39
f 39/129/34 41/130/34 43/131/34
f 43/131/34 45/132/34 47/73/34
f 47/73/34 49/133/34 51/134/34
f 51/134/34 53/135/34 55/136/34
f 55/136/38 57/137/38 59/138/38
f 59/138/38 61/139/38 63/74/38
f 63/74/34 3/112/34 15/118/34
f 3/112/34 7/114/34 15/118/34
f 7/114/34 11/116/34 15/118/34
f 15/118/34 19/120/34 31/72/34
f 19/120/34 23/122/34 31/72/34
f 23/122/38 27/124/38 31/72/38
f 31/72/34 35/127/34 47/73/34
f 35/127/34 39/129/34 47/73/34
f 39/129/34 43/131/34 47/73/34
f 47/73/34 51/134/34 63/74/34
f 51/134/34 55/136/34 63/74/34
f 55/136/39 59/138/39 63/74/39
f 63/74/34 15/118/34 31/72/34
f 65/75/35 66/140/35 68/76/35
